<svg width="22" height="22" viewBox="0 0 22 22" fill="none" xmlns="http://www.w3.org/2000/svg">
<path d="M21.733 20.435L17.8305 16.5325C19.2892 14.7832 20.1681 12.5344 20.1681 10.084C20.1681 4.5237 15.6444 0 10.084 0C4.5237 0 0 4.52364 0 10.084C0 15.6444 4.5237 20.1681 10.084 20.1681C12.5352 20.1681 14.7847 19.2886 16.5342 17.8291L20.4366 21.7315C20.6156 21.9105 20.8502 22 21.0848 22C21.3194 22 21.554 21.9105 21.733 21.7315C22.0911 21.3734 22.0911 20.793 21.733 20.435ZM5.80596 14.3621C5.80596 11.9992 7.72137 10.084 10.084 10.084C8.5652 10.084 7.33378 8.85274 7.33378 7.33378C7.33378 5.81482 8.5652 4.58365 10.084 4.58365C11.6029 4.58365 12.8342 5.81488 12.8342 7.33378C12.8342 8.85268 11.6029 10.084 10.084 10.084C12.4466 10.084 14.362 11.9992 14.362 14.3621H5.80596Z" fill="url(#paint0_linear_0_1781)"/>
<defs>
<linearGradient id="paint0_linear_0_1781" x1="8.01027" y1="41.0667" x2="8.0103" y2="-16.8667" gradientUnits="userSpaceOnUse">
<stop stop-color="#9EC43C"/>
<stop offset="1" stop-color="#2E8B57"/>
</linearGradient>
</defs>
</svg>
