<svg width="21" height="21" viewBox="0 0 21 21" fill="none" xmlns="http://www.w3.org/2000/svg">
<path d="M17.8809 3.34773C14.4755 3.34773 10.9463 0.191123 10.9114 0.1595C10.6768 -0.0531665 10.3193 -0.0531665 10.0847 0.1595C10.0496 0.191369 6.5297 3.34773 3.11523 3.34773C2.77546 3.34773 2.5 3.62319 2.5 3.96296V11.3309C2.5 17.2997 6.93937 19.6847 10.2786 20.9596C10.3493 20.9865 10.4236 21 10.498 21C10.5724 21 10.6468 20.9865 10.7175 20.9596C15.3996 19.1721 18.4961 16.3839 18.4961 11.3309V3.96296C18.4961 3.62319 18.2206 3.34773 17.8809 3.34773Z" fill="url(#paint0_linear_0_1652)"/>
<path d="M10.498 6.19336C8.12337 6.19336 6.19141 8.12532 6.19141 10.5C6.19141 12.8747 8.12337 14.8066 10.498 14.8066C12.8727 14.8066 14.8047 12.8747 14.8047 10.5C14.8047 8.12532 12.8727 6.19336 10.498 6.19336ZM12.1635 10.3198L10.3178 12.1655C10.1977 12.2856 10.0403 12.3457 9.88281 12.3457C9.72535 12.3457 9.56789 12.2857 9.4478 12.1655L8.83257 11.5502C8.5923 11.31 8.5923 10.9205 8.83257 10.6802C9.07279 10.4399 9.46236 10.4399 9.70263 10.6802L9.88285 10.8604L11.2935 9.44971C11.5338 9.20944 11.9233 9.20944 12.1636 9.44971C12.4038 9.68998 12.4038 10.0795 12.1635 10.3198Z" fill="url(#paint1_linear_0_1652)"/>
<defs>
<linearGradient id="paint0_linear_0_1652" x1="8.32382" y1="39.2" x2="8.32386" y2="-16.1" gradientUnits="userSpaceOnUse">
<stop stop-color="#9EC43C"/>
<stop offset="1" stop-color="#2E8B57"/>
</linearGradient>
<linearGradient id="paint1_linear_0_1652" x1="10.498" y1="14.8066" x2="10.498" y2="6.19336" gradientUnits="userSpaceOnUse">
<stop stop-color="#C3FFE8"/>
<stop offset="0.9973" stop-color="#F0FFF4"/>
</linearGradient>
</defs>
</svg>
