<svg width="20" height="20" viewBox="0 0 20 20" fill="none" xmlns="http://www.w3.org/2000/svg">
<path d="M17.2727 0H2.72727C1.22104 0 0 1.22104 0 2.72727V17.2727C0 18.779 1.22104 20 2.72727 20H17.2727C18.779 20 20 18.779 20 17.2727V2.72727C20 1.22104 18.779 0 17.2727 0Z" fill="#0077B5"/>
<path d="M7.20499 5.45455C7.20499 5.79167 7.10502 6.12123 6.91772 6.40154C6.73042 6.68185 6.46421 6.90033 6.15275 7.02934C5.84128 7.15835 5.49855 7.19211 5.1679 7.12634C4.83725 7.06057 4.53353 6.89823 4.29515 6.65984C4.05676 6.42146 3.89442 6.11774 3.82865 5.78709C3.76288 5.45644 3.79664 5.11371 3.92565 4.80224C4.05466 4.49078 4.27314 4.22457 4.55345 4.03727C4.83376 3.84997 5.16332 3.75 5.50044 3.75C5.95252 3.75 6.38608 3.92959 6.70574 4.24925C7.0254 4.56891 7.20499 5.00247 7.20499 5.45455Z" fill="white"/>
<path d="M6.81865 8.29541V15.8261C6.81894 15.8816 6.80826 15.9367 6.78721 15.9881C6.76616 16.0395 6.73515 16.0863 6.69597 16.1257C6.65679 16.1651 6.61022 16.1963 6.55892 16.2176C6.50762 16.239 6.45261 16.25 6.39705 16.25H4.60046C4.54491 16.2501 4.48987 16.2393 4.43852 16.2181C4.38716 16.1969 4.3405 16.1658 4.30122 16.1265C4.26193 16.0872 4.2308 16.0405 4.20961 15.9892C4.18842 15.9378 4.17759 15.8828 4.17774 15.8272V8.29541C4.17774 8.18329 4.22227 8.07577 4.30155 7.99649C4.38083 7.91722 4.48835 7.87268 4.60046 7.87268H6.39705C6.50897 7.87298 6.6162 7.91765 6.69523 7.9969C6.77426 8.07614 6.81865 8.18349 6.81865 8.29541Z" fill="white"/>
<path d="M16.2099 12.2159V15.8613C16.2101 15.9124 16.2001 15.963 16.1806 16.0102C16.1612 16.0574 16.1326 16.1003 16.0964 16.1365C16.0603 16.1726 16.0174 16.2012 15.9702 16.2207C15.923 16.2402 15.8724 16.2501 15.8213 16.25H13.8895C13.8384 16.2501 13.7878 16.2402 13.7406 16.2207C13.6934 16.2012 13.6504 16.1726 13.6143 16.1365C13.5782 16.1003 13.5496 16.0574 13.5301 16.0102C13.5106 15.963 13.5007 15.9124 13.5008 15.8613V12.3284C13.5008 11.8011 13.6554 10.0193 12.1224 10.0193C10.9349 10.0193 10.6929 11.2386 10.6452 11.7863V15.8613C10.6452 15.9634 10.605 16.0614 10.5333 16.1341C10.4617 16.2069 10.3643 16.2485 10.2622 16.25H8.39629C8.34531 16.25 8.29483 16.2399 8.24774 16.2203C8.20065 16.2008 8.15788 16.1722 8.12188 16.1361C8.08589 16.1 8.05737 16.0571 8.03796 16.01C8.01855 15.9628 8.00864 15.9123 8.00879 15.8613V8.26245C8.00864 8.21147 8.01855 8.16096 8.03796 8.11381C8.05737 8.06667 8.08589 8.02382 8.12188 7.98771C8.15788 7.95161 8.20065 7.92297 8.24774 7.90342C8.29483 7.88388 8.34531 7.87382 8.39629 7.87382H10.2622C10.3653 7.87382 10.4641 7.91476 10.537 7.98765C10.6099 8.06053 10.6508 8.15938 10.6508 8.26245V8.91927C11.0917 8.25791 11.7452 7.74768 13.1395 7.74768C16.2281 7.74768 16.2099 10.6318 16.2099 12.2159Z" fill="white"/>
</svg>
