<svg width="24" height="24" viewBox="0 0 24 24" fill="none" xmlns="http://www.w3.org/2000/svg">
<g clip-path="url(#clip0_0_1664)">
<path d="M15.5 1H7.5C6.12 1 5 2.12 5 3.5V20.5C5 21.88 6.12 23 7.5 23H15.5C16.88 23 18 21.88 18 20.5V3.5C18 2.12 16.88 1 15.5 1ZM11.5 22C10.67 22 10 21.33 10 20.5C10 19.67 10.67 19 11.5 19C12.33 19 13 19.67 13 20.5C13 21.33 12.33 22 11.5 22ZM16 18H7V4H16V18Z" fill="url(#paint0_linear_0_1664)"/>
</g>
<defs>
<linearGradient id="paint0_linear_0_1664" x1="9.73301" y1="42.0667" x2="9.73307" y2="-15.8667" gradientUnits="userSpaceOnUse">
<stop stop-color="#9EC43C"/>
<stop offset="1" stop-color="#2E8B57"/>
</linearGradient>
<clipPath id="clip0_0_1664">
<rect width="24" height="24" fill="white"/>
</clipPath>
</defs>
</svg>
