<svg width="25" height="16" viewBox="0 0 25 16" fill="none" xmlns="http://www.w3.org/2000/svg">
<path fill-rule="evenodd" clip-rule="evenodd" d="M18.1415 0.0610824C16.9576 0.31484 16.1541 0.760386 15.2892 1.64258C14.564 2.38227 14.1863 2.99763 13.9188 3.87487L13.7815 4.32522L13.6002 3.91356C13.2147 3.03802 12.6885 1.42116 12.4901 0.50276L12.4438 0.288845L10.2271 0.309347L8.01028 0.329849L7.96909 3.7726C7.92555 7.40682 7.92222 7.4421 7.54404 8.20438C6.86362 9.57583 5.14227 9.98718 3.82929 9.09215C3.4138 8.80891 3.06141 8.3178 2.80126 7.65927C2.62946 7.2244 2.62514 7.14517 2.5876 3.7726L2.54929 0.329849L1.27461 0.308651L0 0.287376L0.0231334 3.82876L0.0463425 7.37008L0.296714 8.10504C0.817707 9.63432 1.71755 10.7545 2.89902 11.3446C3.76808 11.7786 4.27625 11.8962 5.27675 11.8948C6.8615 11.8926 7.83575 11.4972 8.88851 10.4288C9.40935 9.90015 9.60246 9.63718 9.85601 9.11079C10.4416 7.89523 10.4968 7.54507 10.5329 4.82182L10.5646 2.4283L10.9042 3.46793C11.2849 4.63305 12.0652 6.34011 12.6702 7.33139L13.0715 7.989L12.4496 11.8186C12.1076 13.9248 11.8097 15.7273 11.7875 15.8241L11.7473 16L13.0633 15.9788L14.3793 15.9576L14.8262 13.1563L15.2731 10.355L15.7374 10.6909C16.4318 11.1933 17.2263 11.5711 17.9669 11.7511C18.9197 11.9827 20.2719 11.9325 21.1318 11.6337C22.4847 11.1635 23.7279 10.1079 24.331 8.91738C24.8865 7.82088 25 7.31561 25 5.93882C25 4.61913 24.9323 4.27624 24.4735 3.26972C23.8166 1.82895 22.5475 0.718222 20.9801 0.212486C20.3818 0.0193827 18.7436 -0.06804 18.1415 0.0610824ZM18.4338 2.48145C17.3081 2.8053 16.5431 3.77128 16.0636 5.47463C15.8275 6.31334 15.6808 7.20745 15.7399 7.44767C15.7653 7.55057 16.0182 7.87488 16.3019 8.16841C17.2329 9.13122 18.7292 9.70403 19.7917 9.50435C20.9515 9.28633 21.8241 8.50069 22.2243 7.31422C22.8382 5.49436 22.1108 3.44186 20.5793 2.67293C20.1631 2.46389 19.9905 2.42335 19.4349 2.40424C19.0597 2.39132 18.6326 2.4242 18.4338 2.48145Z" fill="black"/>
</svg>
