<svg width="36" height="36" viewBox="0 0 36 36" fill="none" xmlns="http://www.w3.org/2000/svg">
<path d="M25.0456 2.99099C24.8672 2.47829 24.1688 2.08448 23.4555 1.80584C17.552 -0.192935 11.3551 0.709857 8.96991 8.08823C7.52098 12.5799 9.05536 16.1651 10.6455 18.4165C10.7272 18.5168 12.8189 21.0617 14.1266 21.7936C14.6987 22.0054 15.2114 21.9013 15.5904 21.6561C16.3037 20.8574 15.5124 19.8282 15.0703 19.3601C14.9885 19.2821 14.9105 19.2078 14.8325 19.1261C14.8176 19.1149 14.8139 19.1075 14.8139 19.1075H14.8176C13.6251 17.8926 12.7966 16.4177 12.7631 16.3508C11.6077 13.8356 11.0987 10.4548 13.3316 7.75758C15.765 4.81886 19.0381 4.88202 21.1929 5.36128C21.1929 5.36128 21.204 5.365 21.2115 5.365C21.3824 5.40215 21.5421 5.44302 21.6982 5.48388C22.5081 5.67336 24.0722 5.97429 24.5849 5.65107C25.6177 4.93775 25.3651 3.75632 25.0456 2.99099Z" fill="#9EC43D"/>
<path d="M12.7334 24.2902C13.339 24.0376 13.8926 23.5137 13.0789 22.4623C11.682 20.6567 8.47208 19.91 7.00087 13.5087C5.52965 7.10742 9.95445 2.5043 9.95445 2.5043C9.95445 2.5043 2.56492 6.52785 4.61943 15.0691C6.05721 21.0468 9.01822 23.2797 10.6715 24.0859C11.2102 24.3199 11.9532 24.502 12.7334 24.2902Z" fill="#9EC43D"/>
<path d="M9.14082 24.9069C9.07766 24.8512 9.01822 24.7955 8.94763 24.736C6.97114 22.9267 2.57235 17.8963 3.46772 9.56688C3.46772 9.56688 -0.392372 15.8084 3.46772 21.5595C6.77795 26.4896 9.34515 27.3812 9.81698 26.2332C9.92101 25.7391 9.4306 25.1818 9.14082 24.9069Z" fill="#9EC43D"/>
<path d="M0.75563 17.8109C0.75563 17.8109 0.711048 23.0828 2.44604 25.1335C4.18476 27.1843 5.02811 25.9695 4.76804 24.9998C4.50798 24.0264 1.91849 22.8821 0.75563 17.8109Z" fill="#9EC43D"/>
<path d="M11.2882 32.315C11.2919 32.315 11.2919 32.315 11.2882 32.315C11.4666 32.8277 12.165 33.2215 12.8783 33.5002C18.7818 35.5027 24.9787 34.5999 27.3602 27.2178C28.8091 22.7261 27.2747 19.1409 25.6846 16.8895C25.6029 16.7892 23.5112 14.2443 22.2035 13.5124C21.6313 13.3007 21.1186 13.4047 20.7397 13.6499C20.0264 14.4487 20.8177 15.4778 21.2598 15.9459C21.3415 16.0239 21.4196 16.0982 21.4976 16.1799C21.5087 16.1911 21.5162 16.1985 21.5162 16.1985H21.5124C22.705 17.4134 23.5335 18.8883 23.5669 18.9552C24.7224 21.4704 25.2313 24.8512 22.9985 27.5484C20.5651 30.4872 17.292 30.424 15.1372 29.9447C15.1372 29.9447 15.126 29.941 15.1186 29.941C14.9477 29.9039 14.7879 29.863 14.6319 29.8221C13.822 29.6327 12.2579 29.3317 11.7452 29.6549C10.7198 30.3683 10.9687 31.5497 11.2882 32.315Z" fill="#9EC43D"/>
<path d="M23.6041 11.0158C23.6003 11.0158 23.6003 11.0158 23.6041 11.0158C22.9985 11.2684 22.4449 11.7923 23.2586 12.8437C24.6555 14.6493 27.8654 15.396 29.3366 21.7973C30.8041 28.1986 26.3793 32.8017 26.3793 32.8017C26.3793 32.8017 33.7726 28.7782 31.7181 20.2369C30.2803 14.2592 27.3155 12.0226 25.666 11.2202C25.1236 10.9898 24.3843 10.8078 23.6041 11.0158Z" fill="#9EC43D"/>
<path d="M27.1929 10.3991C27.2561 10.4548 27.3155 10.5105 27.3861 10.57C29.3663 12.3793 33.7651 17.4097 32.8697 25.7391C32.8697 25.7391 36.7298 19.4976 32.8697 13.7465C29.5595 8.81642 26.9923 7.92477 26.5205 9.07276C26.4127 9.56688 26.9069 10.1242 27.1929 10.3991Z" fill="#9EC43D"/>
<path d="M35.5781 17.4951C35.5781 17.4951 35.6227 12.2232 33.8877 10.1725C32.149 8.12167 31.3057 9.33653 31.5657 10.3099C31.8258 11.2796 34.3633 12.5316 35.5781 17.4951Z" fill="#9EC43D"/>
</svg>
