<svg width="191" height="83" viewBox="0 0 191 83" fill="none" xmlns="http://www.w3.org/2000/svg">
<path d="M17.1453 61.6216C14.1479 61.6216 11.5501 61.0021 9.35201 59.7632C7.19385 58.4843 5.51529 56.7058 4.31631 54.4277C3.11734 52.1097 2.51785 49.392 2.51785 46.2747C2.51785 43.9567 2.85756 41.8784 3.53698 40.04C4.2164 38.1616 5.17558 36.583 6.41452 35.3041C7.69343 34.0252 9.23211 33.046 11.0306 32.3666C12.869 31.6472 14.9073 31.2875 17.1453 31.2875C18.5442 31.2875 20.0029 31.5073 21.5216 31.9469C23.0803 32.3466 24.519 33.026 25.8379 33.9852C26.3575 34.3049 26.6772 34.7046 26.7971 35.1842C26.957 35.6238 26.9769 36.0834 26.857 36.563C26.7771 37.0426 26.5573 37.4622 26.1976 37.8219C25.8779 38.1416 25.4782 38.3415 24.9986 38.4214C24.519 38.4614 23.9995 38.3215 23.44 38.0018C22.4808 37.3223 21.5016 36.8427 20.5025 36.563C19.5033 36.2433 18.5442 36.0834 17.6249 36.0834C16.1862 36.0834 14.9073 36.3232 13.7882 36.8028C12.7091 37.2424 11.7899 37.9018 11.0306 38.7811C10.2712 39.6204 9.69172 40.6795 9.29206 41.9584C8.93237 43.2373 8.75252 44.696 8.75252 46.3346C8.75252 49.6118 9.51187 52.1896 11.0306 54.068C12.5892 55.9065 14.7874 56.8257 17.6249 56.8257C18.5442 56.8257 19.5033 56.6858 20.5025 56.406C21.5016 56.1263 22.4808 55.6467 23.44 54.9673C23.9995 54.6475 24.519 54.5276 24.9986 54.6076C25.4782 54.6875 25.8579 54.9073 26.1377 55.267C26.4574 55.5867 26.6572 55.9864 26.7371 56.466C26.857 56.9056 26.8371 57.3652 26.6772 57.8448C26.5173 58.3244 26.1776 58.724 25.6581 59.0438C24.3792 59.963 22.9804 60.6224 21.4617 61.0221C19.9829 61.4217 18.5442 61.6216 17.1453 61.6216ZM68.3438 61.484C67.4251 61.484 66.7169 61.2352 66.2193 60.7375C65.7216 60.2016 65.4728 59.4743 65.4728 58.5555V35.5873C65.4728 34.6303 65.7216 33.903 66.2193 33.4054C66.7169 32.9077 67.406 32.6589 68.2864 32.6589C69.2052 32.6589 69.8942 32.9077 70.3536 33.4054C70.8512 33.903 71.1 34.6303 71.1 35.5873V40.0661L70.4684 39.0326C71.3106 36.8889 72.6312 35.2811 74.4304 34.2092C76.2296 33.0991 78.2967 32.544 80.6318 32.544C82.8521 32.544 84.6895 32.9651 86.1442 33.8073C87.6371 34.6112 88.7473 35.8553 89.4746 37.5396C90.2019 39.1857 90.5656 41.272 90.5656 43.7985V58.5555C90.5656 59.4743 90.3168 60.2016 89.8191 60.7375C89.3215 61.2352 88.6133 61.484 87.6946 61.484C86.7375 61.484 86.0102 61.2352 85.5126 60.7375C85.0149 60.2016 84.7661 59.4743 84.7661 58.5555V44.143C84.7661 41.7313 84.2876 39.9704 83.3306 38.8603C82.4119 37.7502 80.9572 37.1951 78.9666 37.1951C76.6315 37.1951 74.7558 37.9224 73.3394 39.3771C71.9613 40.8317 71.2723 42.784 71.2723 45.234V58.5555C71.2723 60.5078 70.2961 61.484 68.3438 61.484ZM102.002 61.484C101.083 61.484 100.375 61.2352 99.8776 60.7375C99.3799 60.2016 99.1311 59.4743 99.1311 58.5555V35.5873C99.1311 34.6303 99.3799 33.903 99.8776 33.4054C100.375 32.9077 101.064 32.6589 101.945 32.6589C102.863 32.6589 103.552 32.9077 104.012 33.4054C104.509 33.903 104.758 34.6303 104.758 35.5873V40.0661L104.127 39.0326C104.969 36.8889 106.29 35.2811 108.089 34.2092C109.888 33.0991 111.955 32.544 114.29 32.544C116.51 32.544 118.348 32.9651 119.802 33.8073C121.295 34.6112 122.406 35.8553 123.133 37.5396C123.86 39.1857 124.224 41.272 124.224 43.7985V58.5555C124.224 59.4743 123.975 60.2016 123.477 60.7375C122.98 61.2352 122.272 61.484 121.353 61.484C120.396 61.484 119.668 61.2352 119.171 60.7375C118.673 60.2016 118.424 59.4743 118.424 58.5555V44.143C118.424 41.7313 117.946 39.9704 116.989 38.8603C116.07 37.7502 114.615 37.1951 112.625 37.1951C110.29 37.1951 108.414 37.9224 106.998 39.3771C105.62 40.8317 104.931 42.784 104.931 45.234V58.5555C104.931 60.5078 103.954 61.484 102.002 61.484ZM145.939 61.5988C142.876 61.5988 140.235 61.0246 138.015 59.8762C135.833 58.6895 134.129 57.0243 132.904 54.8806C131.718 52.6986 131.124 50.1147 131.124 47.1289C131.124 44.2195 131.718 41.6739 132.904 39.4919C134.091 37.3099 135.718 35.6065 137.785 34.3815C139.852 33.1565 142.206 32.544 144.848 32.544C146.8 32.544 148.542 32.8694 150.073 33.5202C151.604 34.1327 152.906 35.0514 153.978 36.2764C155.088 37.4631 155.911 38.9177 156.447 40.6403C157.021 42.363 157.308 44.2961 157.308 46.4398C157.308 47.0906 157.117 47.5882 156.734 47.9327C156.351 48.239 155.777 48.3921 155.011 48.3921H135.718V44.832H153.403L152.427 45.6359C152.427 43.7219 152.14 42.095 151.566 40.7552C151.03 39.4154 150.207 38.4009 149.097 37.7119C148.025 36.9846 146.685 36.6209 145.077 36.6209C143.278 36.6209 141.747 37.042 140.484 37.8842C139.259 38.7263 138.321 39.8939 137.67 41.3868C137.019 42.8797 136.694 44.6215 136.694 46.6121V46.9566C136.694 50.3253 137.479 52.8709 139.048 54.5935C140.656 56.2778 142.972 57.12 145.996 57.12C147.145 57.12 148.35 56.9669 149.614 56.6607C150.915 56.3544 152.14 55.8376 153.288 55.1103C153.939 54.7275 154.513 54.5552 155.011 54.5935C155.547 54.6318 155.968 54.8041 156.274 55.1103C156.619 55.4165 156.829 55.7993 156.906 56.2587C156.983 56.7181 156.906 57.1966 156.676 57.6942C156.447 58.1536 156.045 58.5747 155.47 58.9575C154.169 59.8379 152.657 60.5078 150.934 60.9672C149.212 61.3883 147.546 61.5988 145.939 61.5988ZM164.957 61.4266C164.267 61.4266 163.693 61.2352 163.234 60.8523C162.813 60.4313 162.583 59.9145 162.545 59.302C162.545 58.6895 162.813 58.0196 163.349 57.2923L173.053 45.1766V48.0476L163.98 36.7357C163.368 36.0467 163.081 35.3959 163.119 34.7834C163.157 34.1327 163.406 33.6159 163.866 33.2331C164.325 32.8503 164.88 32.6589 165.531 32.6589C166.258 32.6589 166.851 32.7929 167.311 33.0608C167.808 33.2905 168.268 33.6925 168.689 34.2667L176.326 43.9707H174.259L181.953 34.2667C182.374 33.6925 182.814 33.2905 183.274 33.0608C183.771 32.7929 184.365 32.6589 185.054 32.6589C185.743 32.6589 186.298 32.8694 186.719 33.2905C187.178 33.6733 187.408 34.1901 187.408 34.8409C187.446 35.4534 187.178 36.1041 186.604 36.7932L177.532 47.9327V45.3488L187.236 57.2923C187.81 57.9813 188.078 58.6512 188.04 59.302C188.04 59.9145 187.81 60.4313 187.35 60.8523C186.891 61.2352 186.317 61.4266 185.628 61.4266C184.939 61.4266 184.345 61.2926 183.848 61.0246C183.388 60.7566 182.929 60.3547 182.47 59.8188L174.259 49.4831H176.211L168.057 59.8188C167.636 60.3164 167.177 60.7184 166.679 61.0246C166.22 61.2926 165.646 61.4266 164.957 61.4266Z" fill="#153653"/>
<path d="M50.0611 34.2989C49.9046 33.849 49.2917 33.5034 48.6657 33.2589C43.4851 31.5049 38.0469 32.2971 35.9538 38.7721C34.6823 42.7138 36.0288 45.86 37.4242 47.8357C37.4959 47.9237 39.3315 50.1571 40.4791 50.7993C40.9812 50.9852 41.4311 50.8939 41.7637 50.6787C42.3896 49.9777 41.6952 49.0746 41.3072 48.6638C41.2355 48.5954 41.167 48.5302 41.0986 48.4584C41.0855 48.4487 41.0823 48.4421 41.0823 48.4421H41.0855C40.039 47.376 39.3119 46.0817 39.2826 46.023C38.2686 43.8158 37.822 40.8489 39.7814 38.4819C41.9169 35.903 44.7892 35.9584 46.6802 36.379C46.6802 36.379 46.69 36.3823 46.6965 36.3823C46.8465 36.4149 46.9867 36.4507 47.1236 36.4866C47.8344 36.6529 49.2069 36.917 49.6569 36.6333C50.5632 36.0073 50.3415 34.9706 50.0611 34.2989Z" fill="#9EC43D"/>
<path d="M39.2565 52.9903C39.7879 52.7686 40.2737 52.3089 39.5597 51.3862C38.3338 49.8017 35.5169 49.1464 34.2258 43.5289C32.9348 37.9114 36.8178 33.8718 36.8178 33.8718C36.8178 33.8718 30.333 37.4028 32.136 44.8982C33.3977 50.144 35.9962 52.1035 37.447 52.811C37.9198 53.0164 38.5718 53.1761 39.2565 52.9903Z" fill="#9EC43D"/>
<path d="M36.1034 53.5314C36.048 53.4825 35.9958 53.4336 35.9339 53.3815C34.1994 51.7937 30.3392 47.3793 31.1249 40.0696C31.1249 40.0696 27.7375 45.547 31.1249 50.5939C34.0299 54.9203 36.2827 55.7028 36.6968 54.6954C36.7881 54.2618 36.3577 53.7727 36.1034 53.5314Z" fill="#9EC43D"/>
<path d="M28.7452 47.3043C28.7452 47.3043 28.7061 51.9307 30.2286 53.7304C31.7545 55.5301 32.4946 54.464 32.2663 53.613C32.0381 52.7588 29.7657 51.7546 28.7452 47.3043Z" fill="#9EC43D"/>
<path d="M37.9882 60.0325C37.9915 60.0325 37.9915 60.0325 37.9882 60.0325C38.1447 60.4824 38.7576 60.828 39.3836 61.0725C44.5642 62.8299 50.0024 62.0376 52.0923 55.5594C53.3638 51.6177 52.0173 48.4715 50.6219 46.4957C50.5502 46.4077 48.7146 44.1744 47.567 43.5321C47.0649 43.3463 46.615 43.4376 46.2824 43.6527C45.6564 44.3537 46.3509 45.2568 46.7389 45.6676C46.8106 45.7361 46.8791 45.8013 46.9475 45.873C46.9573 45.8828 46.9638 45.8893 46.9638 45.8893H46.9606C48.0071 46.9554 48.7342 48.2498 48.7635 48.3085C49.7775 50.5157 50.2241 53.4826 48.2647 55.8495C46.1292 58.4284 43.2569 58.373 41.3659 57.9524C41.3659 57.9524 41.3561 57.9492 41.3496 57.9492C41.1996 57.9166 41.0594 57.8807 40.9225 57.8448C40.2117 57.6786 38.8391 57.4145 38.3892 57.6981C37.4894 58.3241 37.7078 59.3609 37.9882 60.0325Z" fill="#9EC43D"/>
<path d="M48.796 41.3412C48.7927 41.3412 48.7927 41.3412 48.796 41.3412C48.2646 41.5629 47.7788 42.0226 48.4928 42.9452C49.7186 44.5297 52.5356 45.1851 53.8266 50.8026C55.1145 56.4201 51.2314 60.4596 51.2314 60.4596C51.2314 60.4596 57.7194 56.9287 55.9165 49.4332C54.6547 44.1874 52.053 42.2247 50.6055 41.5205C50.1294 41.3183 49.4806 41.1586 48.796 41.3412Z" fill="#9EC43D"/>
<path d="M51.9454 40.8C52.0008 40.8489 52.053 40.8978 52.1149 40.95C53.8527 42.5377 57.7129 46.9522 56.9272 54.2618C56.9272 54.2618 60.3146 48.7845 56.9272 43.7375C54.0222 39.4111 51.7694 38.6286 51.3553 39.636C51.2607 40.0697 51.6944 40.5587 51.9454 40.8Z" fill="#9EC43D"/>
<path d="M59.304 47.0271C59.304 47.0271 59.3431 42.4008 57.8205 40.6011C56.2947 38.8014 55.5546 39.8675 55.7828 40.7217C56.0111 41.5726 58.2378 42.6714 59.304 47.0271Z" fill="#9EC43D"/>
<path d="M107.872 73.145V66.4287H108.583V73.145H107.872Z" fill="#686868"/>
<path d="M115.077 73.145V66.4287H115.664L120.297 72.2614H119.99V66.4287H120.691V73.145H120.108L115.478 67.309H115.785V73.1417H115.077V73.145Z" fill="#686868"/>
<path d="M127.894 73.145H127.183V66.4287H131.786V67.0417H127.894V73.145ZM127.815 69.6793H131.366V70.2922H127.815V69.6793Z" fill="#686868"/>
<path d="M140.413 73.2004C139.908 73.2004 139.438 73.1156 139.008 72.9461C138.577 72.7765 138.203 72.5353 137.886 72.2255C137.57 71.9158 137.322 71.5539 137.146 71.1399C136.97 70.7258 136.882 70.2759 136.882 69.7836C136.882 69.2913 136.97 68.8381 137.146 68.4273C137.322 68.0132 137.567 67.6546 137.886 67.3416C138.203 67.0319 138.574 66.7906 139.005 66.6211C139.432 66.4548 139.901 66.37 140.413 66.37C140.918 66.37 141.385 66.4548 141.815 66.6243C142.242 66.7939 142.617 67.0319 142.933 67.3384C143.249 67.6448 143.497 68.0067 143.673 68.424C143.849 68.8414 143.937 69.2945 143.937 69.7868C143.937 70.2791 143.849 70.7323 143.673 71.1496C143.497 71.567 143.253 71.9256 142.933 72.2353C142.614 72.5451 142.245 72.7798 141.815 72.9493C141.385 73.1156 140.918 73.2004 140.413 73.2004ZM140.413 72.5679C140.817 72.5679 141.189 72.4994 141.531 72.3625C141.874 72.2255 142.17 72.0299 142.425 71.7756C142.676 71.5246 142.875 71.2279 143.015 70.8921C143.155 70.5563 143.227 70.1879 143.227 69.7836C143.227 69.3793 143.155 69.0109 143.015 68.6751C142.875 68.3393 142.679 68.0458 142.425 67.7915C142.174 67.5405 141.874 67.3449 141.531 67.2047C141.189 67.0677 140.817 66.9993 140.413 66.9993C140.009 66.9993 139.637 67.0677 139.291 67.2047C138.946 67.3416 138.646 67.5372 138.395 67.7915C138.141 68.0458 137.945 68.3393 137.801 68.6751C137.658 69.0109 137.586 69.3793 137.586 69.7836C137.586 70.1813 137.658 70.5465 137.801 70.8856C137.945 71.2246 138.144 71.5213 138.395 71.7724C138.646 72.0267 138.946 72.219 139.291 72.3592C139.637 72.4994 140.009 72.5679 140.413 72.5679Z" fill="#686868"/>
<path d="M151.042 73.145V67.0417H148.681V66.4287H154.113V67.0417H151.752V73.145H151.042Z" fill="#686868"/>
<path d="M160.262 72.5288H164.301V73.1417H159.551V66.4287H164.155V67.0417H160.259V72.5288H160.262ZM160.187 69.4315H163.737V70.0346H160.187V69.4315Z" fill="#686868"/>
<path d="M173.176 73.2004C172.67 73.2004 172.204 73.1156 171.774 72.9461C171.347 72.7765 170.975 72.5385 170.662 72.2321C170.349 71.9256 170.104 71.5637 169.928 71.1464C169.752 70.7323 169.664 70.2759 169.664 69.7836C169.664 69.2913 169.752 68.8381 169.928 68.4208C170.104 68.0034 170.349 67.6448 170.668 67.3351C170.988 67.0254 171.356 66.7906 171.787 66.6211C172.214 66.4515 172.683 66.3668 173.189 66.3668C173.674 66.3668 174.131 66.4483 174.561 66.6113C174.988 66.7743 175.35 67.0188 175.647 67.3449L175.197 67.7948C174.923 67.5144 174.617 67.309 174.284 67.1851C173.952 67.0612 173.593 66.9993 173.208 66.9993C172.804 66.9993 172.432 67.0677 172.087 67.2047C171.741 67.3416 171.441 67.5372 171.184 67.7915C170.926 68.0458 170.727 68.3393 170.584 68.6751C170.44 69.0109 170.369 69.3793 170.369 69.7836C170.369 70.1879 170.44 70.5563 170.584 70.8921C170.727 71.2279 170.926 71.5213 171.184 71.7756C171.438 72.0299 171.741 72.2223 172.087 72.3625C172.432 72.4994 172.807 72.5679 173.208 72.5679C173.593 72.5679 173.952 72.5027 174.284 72.3755C174.617 72.2484 174.92 72.043 175.197 71.7626L175.647 72.2125C175.354 72.5385 174.992 72.7863 174.561 72.9526C174.128 73.1189 173.668 73.2004 173.176 73.2004Z" fill="#686868"/>
<path d="M182.174 73.145H181.463V66.4287H182.174V73.145ZM186.445 70.0444H182.099V69.4217H186.445V70.0444ZM186.377 66.4287H187.078V73.145H186.377V66.4287Z" fill="#686868"/>
<path d="M7.84912 70.7257H102.662" stroke="#686868" stroke-width="0.326031" stroke-miterlimit="10"/>
</svg>
