<svg width="218" height="90" viewBox="0 0 218 90" fill="none" xmlns="http://www.w3.org/2000/svg">
<path d="M19.5375 66.6148C16.1219 66.6148 13.1616 65.9089 10.6568 64.4971C8.19757 63.0398 6.2848 61.0131 4.91854 58.4173C3.55228 55.7758 2.86915 52.679 2.86915 49.1267C2.86915 46.4852 3.25626 44.1171 4.03047 42.0221C4.80468 39.8816 5.89769 38.0827 7.3095 36.6254C8.76684 35.168 10.5202 34.0523 12.5696 33.2781C14.6645 32.4583 16.9872 32.0484 19.5375 32.0484C21.1315 32.0484 22.7938 32.2989 24.5244 32.7999C26.3005 33.2553 27.94 34.0295 29.4429 35.1225C30.035 35.4868 30.3993 35.9423 30.5359 36.4888C30.7181 36.9897 30.7409 37.5135 30.6042 38.06C30.5132 38.6065 30.2627 39.0847 29.8528 39.4945C29.4885 39.8589 29.033 40.0866 28.4865 40.1777C27.94 40.2232 27.348 40.0638 26.7104 39.6995C25.6174 38.9253 24.5016 38.3788 23.3631 38.06C22.2245 37.6956 21.1315 37.5135 20.084 37.5135C18.4445 37.5135 16.9872 37.7867 15.712 38.3332C14.4824 38.8342 13.4349 39.5856 12.5696 40.5875C11.7043 41.5439 11.0439 42.7508 10.5885 44.2081C10.1786 45.6655 9.9737 47.3278 9.9737 49.195C9.9737 52.9294 10.839 55.8669 12.5696 58.0074C14.3457 60.1023 16.8506 61.1498 20.084 61.1498C21.1315 61.1498 22.2245 60.9904 23.3631 60.6716C24.5016 60.3528 25.6174 59.8063 26.7104 59.0321C27.348 58.6677 27.94 58.5311 28.4865 58.6222C29.033 58.7133 29.4657 58.9638 29.7845 59.3736C30.1488 59.738 30.3765 60.1934 30.4676 60.7399C30.6042 61.2409 30.5815 61.7646 30.3993 62.3111C30.2171 62.8576 29.83 63.313 29.238 63.6774C27.7806 64.7248 26.1867 65.4763 24.4561 65.9317C22.771 66.3871 21.1315 66.6148 19.5375 66.6148ZM77.8794 66.458C76.8325 66.458 76.0255 66.1745 75.4585 65.6074C74.8914 64.9967 74.6078 64.1679 74.6078 63.121V36.9482C74.6078 35.8576 74.8914 35.0288 75.4585 34.4618C76.0255 33.8947 76.8107 33.6111 77.814 33.6111C78.8609 33.6111 79.6461 33.8947 80.1696 34.4618C80.7366 35.0288 81.0202 35.8576 81.0202 36.9482V42.0519L80.3004 40.8741C81.2601 38.4313 82.765 36.5992 84.8152 35.3778C86.8654 34.1128 89.221 33.4803 91.8819 33.4803C94.4119 33.4803 96.5058 33.9601 98.1634 34.9198C99.8646 35.8358 101.13 37.2535 101.958 39.1729C102.787 41.0486 103.202 43.426 103.202 46.305V63.121C103.202 64.1679 102.918 64.9967 102.351 65.6074C101.784 66.1745 100.977 66.458 99.93 66.458C98.8395 66.458 98.0107 66.1745 97.4436 65.6074C96.8765 64.9967 96.593 64.1679 96.593 63.121V46.6976C96.593 43.9494 96.0477 41.9428 94.9572 40.6778C93.9103 39.4128 92.2527 38.7803 89.9844 38.7803C87.3235 38.7803 85.186 39.6091 83.572 41.2667C82.0017 42.9243 81.2165 45.149 81.2165 47.9408V63.121C81.2165 65.3457 80.1041 66.458 77.8794 66.458ZM116.234 66.458C115.187 66.458 114.38 66.1745 113.813 65.6074C113.246 64.9967 112.962 64.1679 112.962 63.121V36.9482C112.962 35.8576 113.246 35.0288 113.813 34.4618C114.38 33.8947 115.165 33.6111 116.168 33.6111C117.215 33.6111 118.001 33.8947 118.524 34.4618C119.091 35.0288 119.375 35.8576 119.375 36.9482V42.0519L118.655 40.8741C119.615 38.4313 121.119 36.5992 123.17 35.3778C125.22 34.1128 127.575 33.4803 130.236 33.4803C132.766 33.4803 134.86 33.9601 136.518 34.9198C138.219 35.8358 139.484 37.2535 140.313 39.1729C141.142 41.0486 141.556 43.426 141.556 46.305V63.121C141.556 64.1679 141.273 64.9967 140.705 65.6074C140.138 66.1745 139.331 66.458 138.284 66.458C137.194 66.458 136.365 66.1745 135.798 65.6074C135.231 64.9967 134.947 64.1679 134.947 63.121V46.6976C134.947 43.9494 134.402 41.9428 133.312 40.6778C132.265 39.4128 130.607 38.7803 128.339 38.7803C125.678 38.7803 123.54 39.6091 121.926 41.2667C120.356 42.9243 119.571 45.149 119.571 47.9408V63.121C119.571 65.3457 118.459 66.458 116.234 66.458ZM166.301 66.5889C162.811 66.5889 159.801 65.9346 157.271 64.6259C154.785 63.2737 152.843 61.3761 151.448 58.9333C150.095 56.4469 149.419 53.5025 149.419 50.1C149.419 46.7848 150.095 43.884 151.448 41.3976C152.8 38.9111 154.654 36.97 157.009 35.5741C159.365 34.1782 162.048 33.4803 165.057 33.4803C167.282 33.4803 169.267 33.8511 171.012 34.5926C172.757 35.2906 174.24 36.3375 175.461 37.7334C176.726 39.0856 177.664 40.7432 178.275 42.7062C178.929 44.6692 179.256 46.872 179.256 49.3148C179.256 50.0564 179.038 50.6235 178.602 51.0161C178.166 51.365 177.511 51.5395 176.639 51.5395H154.654V47.4827H174.807L173.694 48.3988C173.694 46.2177 173.367 44.3638 172.713 42.8371C172.102 41.3103 171.164 40.1543 169.899 39.3692C168.678 38.5404 167.151 38.126 165.319 38.126C163.269 38.126 161.524 38.6058 160.085 39.5655C158.689 40.5251 157.62 41.8556 156.878 43.5568C156.137 45.258 155.766 47.2428 155.766 49.5111V49.9037C155.766 53.7424 156.66 56.6432 158.449 58.6062C160.281 60.5255 162.92 61.4852 166.366 61.4852C167.675 61.4852 169.049 61.3107 170.488 60.9617C171.971 60.6128 173.367 60.0239 174.676 59.1951C175.417 58.7589 176.072 58.5626 176.639 58.6062C177.25 58.6498 177.729 58.8461 178.078 59.1951C178.471 59.544 178.711 59.9803 178.798 60.5037C178.885 61.0272 178.798 61.5724 178.536 62.1395C178.275 62.663 177.817 63.1428 177.162 63.579C175.679 64.5823 173.956 65.3457 171.993 65.8691C170.03 66.349 168.133 66.5889 166.301 66.5889ZM187.972 66.3926C187.187 66.3926 186.532 66.1745 186.009 65.7383C185.529 65.2584 185.267 64.6695 185.224 63.9716C185.224 63.2737 185.529 62.5103 186.14 61.6815L197.198 47.8753V51.1469L186.86 38.2568C186.162 37.4716 185.834 36.7301 185.878 36.0321C185.922 35.2906 186.205 34.7017 186.729 34.2655C187.252 33.8293 187.885 33.6111 188.626 33.6111C189.455 33.6111 190.131 33.7638 190.655 34.0692C191.222 34.3309 191.745 34.7889 192.225 35.4432L200.927 46.5013H198.572L207.34 35.4432C207.82 34.7889 208.321 34.3309 208.845 34.0692C209.412 33.7638 210.088 33.6111 210.873 33.6111C211.658 33.6111 212.291 33.8511 212.771 34.3309C213.294 34.7671 213.556 35.356 213.556 36.0976C213.599 36.7955 213.294 37.5371 212.64 38.3223L202.301 51.0161V48.0716L213.36 61.6815C214.014 62.4667 214.319 63.23 214.276 63.9716C214.276 64.6695 214.014 65.2584 213.49 65.7383C212.967 66.1745 212.313 66.3926 211.527 66.3926C210.742 66.3926 210.066 66.2399 209.499 65.9346C208.976 65.6292 208.452 65.1712 207.929 64.5605L198.572 52.7827H200.797L191.505 64.5605C191.025 65.1276 190.502 65.5856 189.935 65.9346C189.411 66.2399 188.757 66.3926 187.972 66.3926Z" fill="#153653"/>
<path d="M122.923 80.2569V72.6036H123.733V80.2569H122.923Z" fill="#686868"/>
<path d="M131.133 80.2569V72.6036H131.802L137.081 79.2501H136.732V72.6036H137.531V80.2569H136.866L131.59 73.6067H131.94V80.2532H131.133V80.2569Z" fill="#686868"/>
<path d="M145.738 80.2569H144.928V72.6036H150.174V73.3021H145.738V80.2569ZM145.649 76.3077H149.695V77.0061H145.649V76.3077Z" fill="#686868"/>
<path d="M160.004 80.3201C159.428 80.3201 158.893 80.2235 158.403 80.0303C157.913 79.8371 157.485 79.5622 157.125 79.2092C156.765 78.8563 156.482 78.4439 156.282 77.9721C156.081 77.5002 155.981 76.9875 155.981 76.4266C155.981 75.8656 156.081 75.3491 156.282 74.881C156.482 74.4092 156.761 74.0005 157.125 73.6439C157.485 73.2909 157.909 73.016 158.399 72.8228C158.886 72.6333 159.421 72.5367 160.004 72.5367C160.58 72.5367 161.111 72.6333 161.602 72.8265C162.088 73.0197 162.516 73.2909 162.876 73.6402C163.236 73.9894 163.519 74.4018 163.719 74.8773C163.92 75.3529 164.02 75.8693 164.02 76.4303C164.02 76.9913 163.92 77.5077 163.719 77.9832C163.519 78.4588 163.24 78.8674 162.876 79.2204C162.512 79.5733 162.092 79.8408 161.602 80.034C161.111 80.2235 160.58 80.3201 160.004 80.3201ZM160.004 79.5993C160.465 79.5993 160.888 79.5213 161.278 79.3653C161.669 79.2092 162.007 78.9863 162.296 78.6965C162.583 78.4105 162.809 78.0724 162.969 77.6897C163.129 77.3071 163.21 76.8872 163.21 76.4266C163.21 75.9659 163.129 75.5461 162.969 75.1634C162.809 74.7807 162.586 74.4464 162.296 74.1566C162.01 73.8705 161.669 73.6476 161.278 73.4878C160.888 73.3318 160.465 73.2538 160.004 73.2538C159.543 73.2538 159.12 73.3318 158.726 73.4878C158.332 73.6439 157.991 73.8668 157.704 74.1566C157.415 74.4464 157.192 74.7807 157.028 75.1634C156.865 75.5461 156.783 75.9659 156.783 76.4266C156.783 76.8798 156.865 77.2959 157.028 77.6823C157.192 78.0687 157.418 78.4068 157.704 78.6928C157.991 78.9826 158.332 79.2018 158.726 79.3616C159.12 79.5213 159.543 79.5993 160.004 79.5993Z" fill="#686868"/>
<path d="M172.116 80.2569V73.3021H169.426V72.6036H175.615V73.3021H172.926V80.2569H172.116Z" fill="#686868"/>
<path d="M182.622 79.5547H187.225V80.2532H181.812V72.6036H187.058V73.3021H182.619V79.5547H182.622ZM182.537 76.0253H186.583V76.7126H182.537V76.0253Z" fill="#686868"/>
<path d="M197.338 80.3201C196.762 80.3201 196.231 80.2235 195.741 80.0303C195.254 79.8371 194.83 79.5659 194.474 79.2167C194.117 78.8674 193.838 78.455 193.638 77.9795C193.437 77.5077 193.337 76.9875 193.337 76.4265C193.337 75.8656 193.437 75.3491 193.638 74.8736C193.838 74.398 194.117 73.9894 194.481 73.6364C194.845 73.2835 195.265 73.016 195.756 72.8228C196.242 72.6296 196.777 72.533 197.353 72.533C197.907 72.533 198.427 72.6259 198.917 72.8117C199.404 72.9974 199.816 73.2761 200.154 73.6476L199.642 74.1603C199.33 73.8408 198.98 73.6067 198.601 73.4655C198.222 73.3244 197.814 73.2538 197.375 73.2538C196.915 73.2538 196.491 73.3318 196.097 73.4878C195.704 73.6439 195.362 73.8668 195.068 74.1566C194.775 74.4463 194.548 74.7807 194.385 75.1634C194.221 75.546 194.139 75.9659 194.139 76.4265C194.139 76.8872 194.221 77.307 194.385 77.6897C194.548 78.0724 194.775 78.4067 195.068 78.6965C195.358 78.9863 195.704 79.2055 196.097 79.3653C196.491 79.5213 196.918 79.5993 197.375 79.5993C197.814 79.5993 198.222 79.525 198.601 79.3801C198.98 79.2352 199.326 79.0012 199.642 78.6817L200.154 79.1944C199.82 79.5659 199.408 79.8482 198.917 80.0377C198.423 80.2272 197.899 80.3201 197.338 80.3201Z" fill="#686868"/>
<path d="M207.592 80.2569H206.782V72.6036H207.592V80.2569ZM212.459 76.7238H207.507V76.0142H212.459V76.7238ZM212.381 72.6036H213.18V80.2569H212.381V72.6036Z" fill="#686868"/>
<path d="M8.94432 77.5002H116.986" stroke="#686868" stroke-width="0.37152" stroke-miterlimit="10"/>
</svg>
