<svg width="63" height="64" viewBox="0 0 63 64" fill="none" xmlns="http://www.w3.org/2000/svg">
<rect x="0.341309" y="0.676636" width="62.3502" height="62.3502" rx="7.33531" fill="url(#paint0_linear_0_2059)"/>
<g clip-path="url(#clip0_0_2059)">
<path d="M28.6152 32.8186H34.4176V34.7527H28.6152V32.8186Z" fill="white"/>
<path d="M41.7917 34.7532H36.3517V35.7202C36.3517 36.2546 35.919 36.6873 35.3846 36.6873H27.6482C27.1138 36.6873 26.6811 36.2546 26.6811 35.7202V34.7532H21.2412C19.9908 34.7532 18.885 33.9561 18.4891 32.7699L15.012 22.3368V43.4567C15.012 45.0564 16.3135 46.3579 17.9131 46.3579H45.1197C46.7194 46.3579 48.0209 45.0564 48.0209 43.4567V22.3375L44.5435 32.7699C44.1479 33.9561 43.042 34.7532 41.7917 34.7532Z" fill="white"/>
<path d="M35.3846 17.3457H27.6481C26.0484 17.3457 24.7469 18.6472 24.7469 20.2469V21.2139H16.6758L20.3232 32.1575C20.4554 32.5532 20.8246 32.8186 21.2411 32.8186H26.6811V31.8516C26.6811 31.3172 27.1137 30.8845 27.6481 30.8845H35.3846C35.919 30.8845 36.3516 31.3172 36.3516 31.8516V32.8186H41.7916C42.2081 32.8186 42.5773 32.5532 42.7095 32.1575L46.3571 21.2139H38.2857V20.2469C38.2857 18.6472 36.9842 17.3457 35.3846 17.3457ZM26.6811 21.2139V20.2469C26.6811 19.7132 27.1145 19.2798 27.6481 19.2798H35.3846C35.9182 19.2798 36.3516 19.7132 36.3516 20.2469V21.2139H26.6811Z" fill="white"/>
</g>
<defs>
<linearGradient id="paint0_linear_0_2059" x1="23.0416" y1="117.064" x2="23.0417" y2="-47.1252" gradientUnits="userSpaceOnUse">
<stop stop-color="#9EC43C"/>
<stop offset="1" stop-color="#2E8B57"/>
</linearGradient>
<clipPath id="clip0_0_2059">
<rect width="33.0089" height="33.0089" fill="white" transform="translate(15.012 15.3472)"/>
</clipPath>
</defs>
</svg>
