<svg width="63" height="64" viewBox="0 0 63 64" fill="none" xmlns="http://www.w3.org/2000/svg">
<rect x="0.644043" y="0.676636" width="62.3502" height="62.3502" rx="7.33531" fill="url(#paint0_linear_0_2296)"/>
<g clip-path="url(#clip0_0_2296)">
<path d="M29.508 25.4559L31.8192 24.4977L34.1304 25.4559C34.4401 25.5837 34.7957 25.5433 35.0691 25.345C35.3412 25.147 35.4908 24.8214 35.4643 24.4861L35.2677 21.992L36.893 20.0891C37.1115 19.8337 37.1812 19.4823 37.0774 19.1625C36.9736 18.842 36.7105 18.5989 36.383 18.5209L33.9506 17.9366L32.6437 15.8029C32.2959 15.1952 31.3424 15.1953 30.9946 15.8029L29.6878 17.9366L27.2553 18.5209C26.9278 18.5989 26.6647 18.842 26.5609 19.1625C26.4571 19.4823 26.5268 19.8337 26.7453 20.0891L28.3706 21.992L28.174 24.4861C28.1476 24.8214 28.2971 25.1471 28.5692 25.345C28.842 25.5423 29.1972 25.5848 29.508 25.4559Z" fill="white"/>
<path d="M48.2763 22.967C48.1726 22.6465 47.9095 22.4034 47.582 22.3254L45.1495 21.7411L43.8427 19.6074C43.6667 19.3205 43.3547 19.1458 43.0181 19.1458C42.6816 19.1458 42.3696 19.3205 42.1936 19.6074L40.8867 21.7411L38.4543 22.3254C38.1268 22.4034 37.8637 22.6465 37.7599 22.967C37.6561 23.2868 37.7257 23.6383 37.9443 23.8936L39.5696 25.7965L39.373 28.2906C39.3465 28.6259 39.4961 28.9516 39.7682 29.1495C40.0409 29.3469 40.3961 29.3894 40.7069 29.2604L43.0181 28.3022L45.3294 29.2604C45.6391 29.3882 45.9947 29.3478 46.2681 29.1495C46.5402 28.9515 46.6897 28.6259 46.6633 28.2906L46.4667 25.7965L48.092 23.8936C48.3105 23.6383 48.3801 23.2868 48.2763 22.967Z" fill="white"/>
<path d="M23.3013 29.3339C23.5024 29.3339 23.7016 29.2714 23.8699 29.1495C24.142 28.9515 24.2915 28.6259 24.2651 28.2906L24.0685 25.7965L25.6938 23.8936C25.9123 23.6383 25.982 23.2868 25.8782 22.967C25.7744 22.6465 25.5113 22.4034 25.1838 22.3254L22.7513 21.7411L21.4445 19.6074C21.2685 19.3205 20.9565 19.1458 20.6199 19.1458C20.2834 19.1458 19.9714 19.3205 19.7954 19.6074L18.4885 21.7411L16.0561 22.3254C15.7286 22.4034 15.4655 22.6465 15.3617 22.967C15.2579 23.2868 15.3276 23.6383 15.5461 23.8936L17.1714 25.7965L16.9748 28.2906C16.9483 28.6259 17.0979 28.9516 17.37 29.1495C17.6427 29.3469 17.9979 29.3894 18.3087 29.2604L20.6199 28.3022L22.9312 29.2604C23.0505 29.3094 23.1762 29.3339 23.3013 29.3339Z" fill="white"/>
<path d="M43.2033 38.6095L42.0589 45.1681C41.7714 46.8102 40.346 48.008 38.6794 48.008H32.0795C31.6186 48.008 31.1666 47.9159 30.7482 47.7437C30.3298 47.5696 29.9449 47.3156 29.6194 46.9894C29.5994 46.9694 29.5787 46.9494 29.5581 46.9295V36.0352L29.6019 36.0198C30.5323 35.6858 31.2575 34.9405 31.5644 34.0005L32.1414 32.1541L32.919 29.6662C33.1478 28.9667 33.8996 28.5857 34.5997 28.8145C35.8814 29.2323 36.6963 30.4237 36.6963 31.7022C36.6963 32.0155 36.6473 32.334 36.5441 32.6473L35.6776 35.4905H40.5819C42.2349 35.4905 43.4882 36.9817 43.2033 38.6095Z" fill="white"/>
<path d="M26.6626 48.356H22.1861C21.6551 48.356 21.2246 47.9256 21.2246 47.3945V35.8011C21.2246 35.2701 21.6551 34.8396 22.1861 34.8396H26.6626C27.1937 34.8396 27.6241 35.2701 27.6241 35.8011V47.3945C27.6241 47.9256 27.1937 48.356 26.6626 48.356Z" fill="white"/>
</g>
<defs>
<linearGradient id="paint0_linear_0_2296" x1="23.3443" y1="117.064" x2="23.3444" y2="-47.1252" gradientUnits="userSpaceOnUse">
<stop stop-color="#9EC43C"/>
<stop offset="1" stop-color="#2E8B57"/>
</linearGradient>
<clipPath id="clip0_0_2296">
<rect width="33.0089" height="33.0089" fill="white" transform="translate(15.3145 15.3472)"/>
</clipPath>
</defs>
</svg>
