<svg width="63" height="64" viewBox="0 0 63 64" fill="none" xmlns="http://www.w3.org/2000/svg">
<rect x="0.0683594" y="0.676636" width="62.3502" height="62.3502" rx="7.33531" fill="url(#paint0_linear_0_2070)"/>
<g clip-path="url(#clip0_0_2070)">
<path d="M20.8133 32.8186H14.7388C14.9299 36.1535 16.1072 39.3017 18.1309 41.9248C19.269 41.282 20.5468 40.7308 21.9271 40.2813C21.2703 37.9865 20.8885 35.4526 20.8133 32.8186Z" fill="white"/>
<path d="M20.8133 30.8847C20.8885 28.2506 21.2703 25.7167 21.9272 23.4218C20.5468 22.9724 19.2691 22.4212 18.131 21.7783C16.1072 24.4015 14.9299 27.5498 14.7388 30.8847H20.8133Z" fill="white"/>
<path d="M25.3929 19.9378C25.0256 20.616 24.694 21.3433 24.3992 22.1116C26.2362 22.5507 28.224 22.8129 30.2764 22.8756V15.4296C28.4695 15.8428 26.7634 17.4069 25.3929 19.9378Z" fill="white"/>
<path d="M32.2107 15.4296V22.8755C34.263 22.8128 36.2508 22.5505 38.0878 22.1116C37.793 21.3433 37.4613 20.6159 37.0941 19.9377C35.7236 17.4069 34.0175 15.8429 32.2107 15.4296Z" fill="white"/>
<path d="M38.7004 23.9504C36.6685 24.4497 34.4717 24.7455 32.2104 24.8113V30.8852H39.7378C39.6638 28.4275 39.3086 26.0727 38.7004 23.9504Z" fill="white"/>
<path d="M22.5309 42.1167C21.4129 42.4808 20.3719 42.9167 19.4312 43.4182C19.4718 43.4598 19.5118 43.5018 19.5529 43.5429C21.2736 45.2637 23.3072 46.5573 25.5249 47.373C24.864 46.6143 24.2493 45.7165 23.692 44.6874C23.2587 43.8873 22.8713 43.0265 22.5309 42.1167Z" fill="white"/>
<path d="M39.9562 21.5867C41.0742 21.2226 42.1151 20.7867 43.0559 20.2852C43.0152 20.2437 42.9753 20.2017 42.9342 20.1605C41.2134 18.4398 39.1798 17.1462 36.9622 16.3304C37.623 17.0892 38.2378 17.987 38.7951 19.0161C39.2283 19.8161 39.6157 20.677 39.9562 21.5867Z" fill="white"/>
<path d="M41.6735 32.8186C41.5983 35.4526 41.2164 37.9865 40.5596 40.2814C41.94 40.7308 43.2177 41.282 44.3558 41.9249C46.3795 39.3018 47.5568 36.1535 47.7479 32.8187H41.6735V32.8186Z" fill="white"/>
<path d="M39.9563 42.1167C39.6158 43.0265 39.2284 43.8873 38.7951 44.6873C38.2378 45.7165 37.623 46.6142 36.9622 47.373C39.1798 46.5572 41.2134 45.2636 42.9342 43.5429C42.9753 43.5017 43.0152 43.4597 43.0558 43.4182C42.1151 42.9168 41.0742 42.4808 39.9563 42.1167Z" fill="white"/>
<path d="M22.5307 21.5867C22.8712 20.677 23.2586 19.8161 23.6919 19.0161C24.2491 17.987 24.864 17.0892 25.5248 16.3304C23.3071 17.1462 21.2736 18.4398 19.5528 20.1605C19.5117 20.2017 19.4718 20.2437 19.4312 20.2852C20.3719 20.7867 21.4128 21.2226 22.5307 21.5867Z" fill="white"/>
<path d="M40.5596 23.4216C41.2164 25.7165 41.5983 28.2504 41.6735 30.8845H47.748C47.5569 27.5496 46.3795 24.4013 44.3559 21.7782C43.2177 22.421 41.94 22.9722 40.5596 23.4216Z" fill="white"/>
<path d="M30.276 30.8852V24.8113C28.0147 24.7455 25.8179 24.4496 23.7859 23.9504C23.1777 26.0726 22.8225 28.4274 22.7485 30.8853H30.276V30.8852Z" fill="white"/>
<path d="M32.2104 32.8187V38.8925C34.4717 38.9583 36.6685 39.2541 38.7004 39.7533C39.3086 37.6311 39.6638 35.2764 39.7378 32.8186H32.2104V32.8187Z" fill="white"/>
<path d="M37.0939 43.7651C37.4612 43.0869 37.7928 42.3595 38.0876 41.5912C36.2505 41.1522 34.2629 40.89 32.2104 40.8273V48.2732C34.0173 47.8599 35.7234 46.2959 37.0939 43.7651Z" fill="white"/>
<path d="M30.2762 48.2732V40.8273C28.2238 40.89 26.236 41.1522 24.3989 41.5912C24.6938 42.3595 25.0254 43.0869 25.3927 43.7651C26.7632 46.2959 28.4693 47.86 30.2762 48.2732Z" fill="white"/>
<path d="M30.276 32.8186H22.7485C22.8226 35.2764 23.1777 37.6311 23.7859 39.7533C25.8178 39.254 28.0147 38.9582 30.276 38.8925V32.8186Z" fill="white"/>
</g>
<defs>
<linearGradient id="paint0_linear_0_2070" x1="22.7687" y1="117.064" x2="22.7687" y2="-47.1252" gradientUnits="userSpaceOnUse">
<stop stop-color="#9EC43C"/>
<stop offset="1" stop-color="#2E8B57"/>
</linearGradient>
<clipPath id="clip0_0_2070">
<rect width="33.0089" height="33.0089" fill="white" transform="translate(14.7388 15.3472)"/>
</clipPath>
</defs>
</svg>
