<svg width="188" height="144" viewBox="0 0 188 144" fill="none" xmlns="http://www.w3.org/2000/svg">
<g opacity="0.04">
<path fill-rule="evenodd" clip-rule="evenodd" d="M52.2452 5.1617C33.2019 2.31574 15.3893 15.4966 12.5429 34.5436C9.69737 53.5869 22.8779 71.3995 41.9213 74.2454C47.8573 75.1323 53.9376 74.4752 59.5126 72.3461C59.8496 72.2161 60.2081 72.1832 60.5506 72.2343C60.939 72.2924 61.3105 72.4597 61.6125 72.7323C62.1863 73.2399 62.4292 74.0269 62.2388 74.7704C59.4833 85.6047 55.096 95.4305 49.197 103.977C43.9848 111.525 37.6859 117.893 30.3792 123.015C64.1079 110.986 82.1434 77.2617 82.1564 47.8402C82.1635 29.3718 74.3096 8.45903 52.245 5.16169L52.2452 5.1617Z" fill="white"/>
<path fill-rule="evenodd" clip-rule="evenodd" d="M150.826 19.8936C131.779 17.0471 113.97 30.2285 111.124 49.2755C108.278 68.3188 121.455 86.1309 140.502 88.9773C146.435 89.8637 152.519 89.2072 158.094 87.0781C158.431 86.9481 158.785 86.9147 159.128 86.9657C159.516 87.0237 159.888 87.1911 160.193 87.4642C160.767 87.9718 161.007 88.7583 160.82 89.5024C158.064 100.337 153.673 110.162 147.774 118.708C142.562 126.257 136.267 132.625 128.96 137.747C162.682 125.716 180.721 91.9931 180.734 62.5716C180.741 44.1033 172.89 23.191 150.826 19.8937L150.826 19.8936Z" fill="white"/>
</g>
</svg>
