<svg width="172" height="120" viewBox="0 0 172 120" fill="none" xmlns="http://www.w3.org/2000/svg">
<g opacity="0.04">
<path fill-rule="evenodd" clip-rule="evenodd" d="M136.379 6.37765e-10C155.634 -0.000115429 171.303 15.6687 171.303 34.9272C171.302 54.1819 155.634 69.8509 136.379 69.8509C130.377 69.8506 124.461 68.3022 119.262 65.3725C118.948 65.194 118.598 65.1086 118.252 65.1085C117.859 65.1085 117.467 65.2191 117.128 65.444C116.485 65.8612 116.129 66.6036 116.207 67.3672C117.331 78.4898 120.218 88.856 124.789 98.1802C128.828 106.416 134.117 113.646 140.586 119.79C109.006 102.908 96.1528 66.8893 100.488 37.7889C103.211 19.5223 114.07 2.09554e-05 136.379 2.09554e-05L136.379 6.37765e-10Z" fill="white"/>
<path fill-rule="evenodd" clip-rule="evenodd" d="M36.7036 6.37765e-10C55.9621 -0.000115429 71.6273 15.6687 71.6273 34.9272C71.6271 54.1819 55.9622 69.8509 36.7036 69.8509C30.7049 69.8506 24.7852 68.3022 19.5861 65.3725C19.2719 65.194 18.9261 65.1086 18.5798 65.1085C18.1872 65.1085 17.7948 65.2191 17.4522 65.444C16.8098 65.8612 16.4567 66.6036 16.5316 67.3672C17.6556 78.4898 20.5459 88.856 25.1171 98.1802C29.1561 106.416 34.4412 113.646 40.9106 119.79C9.33735 102.908 -3.519 66.8893 0.816643 37.7889C3.53896 19.5223 14.3941 2.09554e-05 36.7036 2.09554e-05L36.7036 6.37765e-10Z" fill="white"/>
</g>
</svg>
