<svg width="63" height="63" viewBox="0 0 63 63" fill="none" xmlns="http://www.w3.org/2000/svg">
<rect x="0.492676" y="0.00891113" width="62.3502" height="62.3502" rx="7.33531" fill="url(#paint0_linear_0_2095)"/>
<g clip-path="url(#clip0_0_2095)">
<path d="M35.0828 22.062C36.609 23.0189 37.6793 24.6383 37.8741 26.518C38.4965 26.8088 39.1874 26.9761 39.9198 26.9761C42.5937 26.9761 44.7609 24.8088 44.7609 22.1353C44.7609 19.4614 42.5937 17.2942 39.9198 17.2942C37.2714 17.295 35.1232 19.4235 35.0828 22.062ZM31.9112 31.9742C34.5852 31.9742 36.7524 29.8065 36.7524 27.133C36.7524 24.4595 34.5847 22.2923 31.9112 22.2923C29.2377 22.2923 27.0693 24.4599 27.0693 27.1334C27.0693 29.8069 29.2377 31.9742 31.9112 31.9742ZM33.9648 32.3041H29.8569C26.439 32.3041 23.6584 35.0851 23.6584 38.503V43.5266L23.6712 43.6053L24.0172 43.7137C27.279 44.7328 30.1127 45.0727 32.4451 45.0727C37.0008 45.0727 39.6413 43.7738 39.804 43.691L40.1274 43.5275H40.162V38.503C40.1633 35.0851 37.3827 32.3041 33.9648 32.3041ZM41.9742 27.3064H37.898C37.8539 28.9373 37.1577 30.4059 36.0566 31.4621C39.0947 32.3655 41.3175 35.1828 41.3175 38.5104V40.0585C45.3422 39.911 47.6614 38.7704 47.8143 38.6937L48.1376 38.5298H48.1722V33.5045C48.1722 30.087 45.3916 27.3064 41.9742 27.3064ZM23.4166 26.9769C24.3636 26.9769 25.2448 26.7005 25.9912 26.2296C26.2285 24.682 27.0582 23.3296 28.2433 22.4084C28.2483 22.3178 28.2569 22.228 28.2569 22.1366C28.2569 19.4627 26.0893 17.2954 23.4166 17.2954C20.7423 17.2954 18.5754 19.4627 18.5754 22.1366C18.5754 24.8092 20.7423 26.9769 23.4166 26.9769ZM27.7642 31.4621C26.6685 30.4112 25.9747 28.9505 25.9241 27.3295C25.7729 27.3184 25.6234 27.3064 25.4693 27.3064H21.3618C17.9439 27.3064 15.1633 30.087 15.1633 33.5045V38.529L15.1761 38.6064L15.5221 38.7156C18.1388 39.5325 20.4741 39.909 22.5025 40.0276V38.5104C22.5033 35.1828 24.7253 32.3663 27.7642 31.4621Z" fill="white"/>
</g>
<defs>
<linearGradient id="paint0_linear_0_2095" x1="23.193" y1="116.396" x2="23.1931" y2="-47.7929" gradientUnits="userSpaceOnUse">
<stop stop-color="#9EC43C"/>
<stop offset="1" stop-color="#2E8B57"/>
</linearGradient>
<clipPath id="clip0_0_2095">
<rect width="33.0089" height="33.0089" fill="white" transform="translate(15.1633 14.6794)"/>
</clipPath>
</defs>
</svg>
