<svg width="64" height="64" viewBox="0 0 64 64" fill="none" xmlns="http://www.w3.org/2000/svg">
<rect x="0.916992" y="0.676636" width="62.3502" height="62.3502" rx="7.33531" fill="url(#paint0_linear_0_2045)"/>
<path d="M37.6723 17.0901H26.6982C28.0372 15.2506 29.6287 13.5219 31.4466 11.9324C31.5369 11.8531 31.6489 11.7895 31.7749 11.7458C31.9009 11.7022 32.038 11.6796 32.1767 11.6796C32.3127 11.6796 32.4472 11.7005 32.5721 11.7411C32.697 11.7817 32.8095 11.841 32.9028 11.9155L32.9239 11.9324C34.7419 13.5218 36.3334 15.2506 37.6723 17.0901Z" fill="white"/>
<path d="M32.1859 26.1129C33.6428 26.1129 34.8239 25.2235 34.8239 24.1264C34.8239 23.0293 33.6428 22.1399 32.1859 22.1399C30.7289 22.1399 29.5479 23.0293 29.5479 24.1264C29.5479 25.2235 30.7289 26.1129 32.1859 26.1129Z" fill="white"/>
<path d="M38.6604 18.5349H25.7103C23.4692 21.9626 22.2979 25.7305 22.2856 29.5511C22.2952 30.2951 22.3528 31.0464 22.4583 31.8121C22.8626 34.5673 23.9082 37.2473 25.5472 39.7293C25.651 39.8822 25.809 40.0104 26.0038 40.0997C26.1985 40.1889 26.4223 40.2358 26.6503 40.235H37.7204C37.9496 40.2358 38.1745 40.1882 38.3695 40.0976C38.5645 40.0069 38.7218 39.8768 38.8235 39.7221C40.4595 37.2418 41.505 34.5645 41.9124 31.8121C42.0179 31.0464 42.0755 30.2879 42.0851 29.5439C42.0741 25.7255 40.9026 21.9597 38.6604 18.5349ZM32.1853 27.5573C31.2841 27.5573 30.4032 27.3561 29.6539 26.9791C28.9045 26.602 28.3205 26.0661 27.9756 25.4392C27.6308 24.8122 27.5405 24.1223 27.7164 23.4567C27.8922 22.7911 28.3261 22.1797 28.9634 21.6998C29.6006 21.2199 30.4125 20.8931 31.2964 20.7607C32.1803 20.6283 33.0965 20.6963 33.9291 20.956C34.7617 21.2157 35.4733 21.6555 35.974 22.2198C36.4747 22.784 36.7419 23.4474 36.7419 24.1261C36.7408 25.0358 36.2604 25.9081 35.4061 26.5514C34.5518 27.1947 33.3935 27.5565 32.1853 27.5573Z" fill="white"/>
<path d="M36.4255 42.729H27.9455C27.7746 42.7287 27.6059 42.6995 27.4519 42.6437C27.2979 42.5878 27.1626 42.5066 27.0558 42.4061C26.949 42.3056 26.8735 42.1883 26.8349 42.0629C26.7963 41.9375 26.7956 41.8072 26.8328 41.6815H37.5383C37.5754 41.8072 37.5747 41.9375 37.5361 42.0629C37.4975 42.1883 37.422 42.3056 37.3152 42.4061C37.2085 42.5066 37.0731 42.5878 36.9191 42.6437C36.7651 42.6995 36.5964 42.7287 36.4255 42.729Z" fill="white"/>
<path d="M23.0052 38.9924C21.8824 39.9238 21.134 41.0761 20.8468 42.3153C20.803 42.4769 20.6928 42.624 20.5318 42.7358C20.3709 42.8476 20.1673 42.9186 19.9499 42.9385C19.7325 42.9585 19.5123 42.9265 19.3203 42.8471C19.1284 42.7676 18.9745 42.6448 18.8803 42.4959C17.7002 40.6669 17.2213 38.6262 17.4975 36.6034C17.7737 34.5807 18.7942 32.6561 20.444 31.0463C20.7047 33.7838 21.5703 36.4694 23.0052 38.9924Z" fill="white"/>
<path d="M45.4908 42.4959C45.3968 42.6449 45.2429 42.7678 45.0509 42.8473C44.859 42.9268 44.6387 42.9589 44.4212 42.9389C44.2038 42.9189 44.0001 42.848 43.8392 42.7361C43.6782 42.6241 43.5681 42.4769 43.5243 42.3153C43.2372 41.0761 42.4887 39.9238 41.366 38.9924C42.8061 36.4711 43.6688 33.7844 43.9176 31.0463C45.5717 32.6544 46.5955 34.5788 46.8735 36.602C47.1515 38.6253 46.6726 40.6668 45.4908 42.4959Z" fill="white"/>
<path d="M34.4423 43.5185C34.2925 43.4248 34.1047 43.3722 33.91 43.3693C33.7152 43.3664 33.5249 43.4134 33.3702 43.5026C33.2156 43.5919 33.1058 43.718 33.0588 43.8604C33.0118 44.0027 33.0304 44.1529 33.1116 44.2863L33.1131 44.2892C33.295 44.6674 33.3279 45.077 33.208 45.4689C33.0882 45.8608 32.8206 46.2184 32.4374 46.4985C32.407 46.5266 32.3686 46.5492 32.3252 46.5647C32.2817 46.5802 32.2342 46.5883 32.1861 46.5883C32.138 46.5883 32.0905 46.5802 32.047 46.5647C32.0035 46.5492 31.9652 46.5266 31.9348 46.4985C31.5516 46.2184 31.284 45.8609 31.1641 45.4689C31.0442 45.077 31.0772 44.6674 31.259 44.2892L31.2606 44.2863C31.3417 44.1529 31.3604 44.0027 31.3134 43.8604C31.2664 43.718 31.1565 43.5918 31.0019 43.5026C30.8472 43.4134 30.6569 43.3664 30.4621 43.3693C30.2674 43.3722 30.0797 43.4248 29.9298 43.5185C28.8056 44.2897 28.0869 45.3394 27.9048 46.4763C27.7227 47.6132 28.0892 48.7616 28.9377 49.7119C29.6292 50.5883 30.5688 51.3392 31.6896 51.9111C31.8368 51.9846 32.0095 52.0238 32.1861 52.0238C32.3627 52.0238 32.5354 51.9846 32.6826 51.9111C33.8033 51.3392 34.7429 50.5883 35.4345 49.7119C36.2829 48.7616 36.6495 47.6132 36.4674 46.4763C36.2853 45.3394 35.5665 44.2897 34.4423 43.5185Z" fill="white"/>
<defs>
<linearGradient id="paint0_linear_0_2045" x1="23.6173" y1="117.064" x2="23.6174" y2="-47.1252" gradientUnits="userSpaceOnUse">
<stop stop-color="#9EC43C"/>
<stop offset="1" stop-color="#2E8B57"/>
</linearGradient>
</defs>
</svg>
