<svg width="21" height="24" viewBox="0 0 21 24" fill="none" xmlns="http://www.w3.org/2000/svg">
<path d="M12.5263 24C13.3287 24 14.0285 23.3002 14.0285 22.4978V18.9894H15.0316C15.6335 18.9894 16.0347 18.5881 16.0347 17.9863V7.96582H4.00732V17.9864C4.00732 18.5882 4.40857 18.9895 5.0104 18.9895H6.01357V22.4979C6.01357 23.3003 6.71318 24.0001 7.51582 24.0001C8.31818 24.0001 9.01793 23.3003 9.01793 22.4979V18.9895H11.0241V22.4979C11.024 23.3002 11.7238 24 12.5263 24Z" fill="url(#paint0_linear_0_65)"/>
<path d="M18.5403 17.9864C19.3428 17.9864 20.0424 17.2867 20.0424 16.4841V9.46741C20.0424 8.66918 19.3428 7.96582 18.5403 7.96582C17.7378 7.96582 17.0381 8.66923 17.0381 9.46741V16.4841C17.0381 17.2866 17.7377 17.9864 18.5403 17.9864Z" fill="url(#paint1_linear_0_65)"/>
<path d="M1.50211 17.9864C2.30466 17.9864 3.00436 17.2867 3.00436 16.4841V9.46741C3.00436 8.66918 2.30475 7.96582 1.50211 7.96582C0.699656 7.96582 0 8.66923 0 9.46741V16.4841C4.6875e-05 17.2866 0.699656 17.9864 1.50211 17.9864Z" fill="url(#paint2_linear_0_65)"/>
<path d="M14.8308 0.151348C14.6303 -0.0504492 14.3318 -0.0504492 14.1312 0.151348L12.7859 1.49221L12.7238 1.55417C11.9261 1.15471 11.0317 0.955206 10.0357 0.953285C10.0308 0.953285 10.026 0.953144 10.0211 0.953144H10.021C10.0159 0.953144 10.0113 0.953285 10.0062 0.953285C9.01029 0.955206 8.11592 1.15471 7.31824 1.55417L7.25604 1.49221L5.91068 0.151348C5.71001 -0.0504492 5.41161 -0.0504492 5.21107 0.151348C5.0104 0.352019 5.0104 0.649863 5.21107 0.850394L6.51246 2.15202C6.09312 2.432 5.71287 2.77461 5.38221 3.16649C4.59059 4.10483 4.08561 5.32606 4.01618 6.64925C4.01553 6.66303 4.01417 6.67663 4.01356 6.69041C4.00929 6.7805 4.00732 6.87106 4.00732 6.962H16.0346C16.0346 6.87111 16.0325 6.78055 16.0284 6.69041C16.0278 6.67663 16.0264 6.66303 16.0256 6.64925C15.9563 5.32606 15.4512 4.10478 14.6596 3.16658C14.3291 2.77471 13.9487 2.4321 13.5293 2.15211L14.8308 0.850488C15.0316 0.649863 15.0316 0.352066 14.8308 0.151348ZM7.51385 5.21061C7.09887 5.21061 6.7624 4.87419 6.7624 4.45916C6.7624 4.04413 7.09882 3.7077 7.51385 3.7077C7.92884 3.7077 8.26531 4.04413 8.26531 4.45916C8.26531 4.87419 7.92884 5.21061 7.51385 5.21061ZM12.5281 5.21061C12.1131 5.21061 11.7766 4.87419 11.7766 4.45916C11.7766 4.04413 12.113 3.7077 12.5281 3.7077C12.9431 3.7077 13.2795 4.04413 13.2795 4.45916C13.2795 4.87419 12.9431 5.21061 12.5281 5.21061Z" fill="url(#paint3_linear_0_65)"/>
<defs>
<linearGradient id="paint0_linear_0_65" x1="8.38622" y1="37.8965" x2="8.38625" y2="-4.32714" gradientUnits="userSpaceOnUse">
<stop stop-color="#9EC43C"/>
<stop offset="1" stop-color="#2E8B57"/>
</linearGradient>
<linearGradient id="paint1_linear_0_65" x1="18.1319" y1="26.6709" x2="18.132" y2="0.283389" gradientUnits="userSpaceOnUse">
<stop stop-color="#9EC43C"/>
<stop offset="1" stop-color="#2E8B57"/>
</linearGradient>
<linearGradient id="paint2_linear_0_65" x1="1.09382" y1="26.6709" x2="1.09387" y2="0.283389" gradientUnits="userSpaceOnUse">
<stop stop-color="#9EC43C"/>
<stop offset="1" stop-color="#2E8B57"/>
</linearGradient>
<linearGradient id="paint3_linear_0_65" x1="8.3862" y1="12.9957" x2="8.38621" y2="-5.33753" gradientUnits="userSpaceOnUse">
<stop stop-color="#9EC43C"/>
<stop offset="1" stop-color="#2E8B57"/>
</linearGradient>
</defs>
</svg>
