<svg width="24" height="24" viewBox="0 0 24 24" fill="none" xmlns="http://www.w3.org/2000/svg">
<path d="M3.13242 2.71661C3.83653 3.32687 4.74975 2.35365 4.09313 1.68967L2.64 0.330293C2.36967 0.0774023 1.94958 0.0774023 1.6793 0.330293L0.226172 1.68967C-0.0573745 1.95498 -0.0722339 2.39992 0.193032 2.68351C0.458344 2.96706 0.903282 2.98192 1.18688 2.71665L1.4565 2.46442V15.6764L1.18688 15.4241C0.483938 14.8131 -0.430968 15.789 0.226172 16.4511L1.6793 17.8105C1.81444 17.9369 1.98703 18.0001 2.15967 18.0001C2.33231 18.0001 2.50486 17.9369 2.64005 17.8105L4.09317 16.4511C4.74966 15.7899 3.83672 14.8127 3.13247 15.4241L2.86285 15.6764V2.46433L3.13242 2.71661Z" fill="url(#paint0_linear_0_170)"/>
<path d="M23.8138 21.3629L22.4544 19.9097C21.7927 19.2529 20.8162 20.1668 21.4275 20.8705L21.6797 21.1401H7.55373L7.80596 20.8705C8.41702 20.1677 7.44118 19.2526 6.77902 19.9097L5.41965 21.3629C5.16676 21.6332 5.16676 22.0533 5.41965 22.3236L6.77902 23.7767C6.91749 23.9247 7.10481 23.9995 7.29263 23.9995C7.89662 24.0058 8.22742 23.2592 7.80596 22.816L7.55373 22.5463H21.6797L21.4275 22.816C21.1622 23.0995 21.177 23.5445 21.4606 23.8098C21.7436 24.0747 22.1887 24.0607 22.4545 23.7767L23.8138 22.3235C24.0667 22.0533 24.0667 21.6332 23.8138 21.3629Z" fill="url(#paint1_linear_0_170)"/>
<path d="M6.14404 18H23.3003C23.6886 18 24.0034 17.6852 24.0034 17.2969V0.703125C24.0034 0.314813 23.6886 0 23.3003 0H6.14404C5.75573 0 5.44092 0.314813 5.44092 0.703125V17.2969C5.44092 17.6852 5.75573 18 6.14404 18ZM8.55797 7.52546C8.63278 7.29521 8.82075 7.11966 9.05554 7.06074L12.3321 6.23869L14.1264 3.3765C14.255 3.17138 14.4801 3.04683 14.7222 3.04683C14.9643 3.04683 15.1893 3.17138 15.3179 3.3765L17.1122 6.23869L20.3888 7.06074C20.6236 7.11961 20.8116 7.29521 20.8864 7.52546C20.9612 7.75571 20.9123 8.00822 20.757 8.19389L18.5894 10.7849L18.82 14.1551C18.8366 14.3966 18.7277 14.6296 18.5318 14.772C18.3355 14.9147 18.0795 14.9455 17.8561 14.8554L14.7221 13.5946L11.5882 14.8554C11.3635 14.9459 11.1083 14.9143 10.9124 14.772C10.7165 14.6296 10.6077 14.3966 10.6242 14.1551L10.8549 10.7849L8.68729 8.19389C8.53204 8.00822 8.48315 7.75566 8.55797 7.52546Z" fill="url(#paint2_linear_0_170)"/>
<path d="M12.2771 10.5992L12.1036 13.1327C12.2053 13.1089 14.7062 12.0367 14.722 12.1341C14.8111 12.1341 14.9002 12.151 14.9844 12.1849L17.3404 13.1327L17.167 10.5992C17.1545 10.4181 17.2127 10.2392 17.3292 10.1L18.9586 8.15227L16.4955 7.53431C16.3194 7.49016 16.1673 7.37963 16.0708 7.22578L14.722 5.07422L13.3731 7.22578C13.2767 7.37958 13.1245 7.49016 12.9484 7.53431L10.4854 8.15227L12.1148 10.1C12.2314 10.2392 12.2894 10.4181 12.2771 10.5992Z" fill="url(#paint3_linear_0_170)"/>
<defs>
<linearGradient id="paint0_linear_0_170" x1="1.57254" y1="33.4783" x2="1.57266" y2="-13.5517" gradientUnits="userSpaceOnUse">
<stop stop-color="#9EC43C"/>
<stop offset="1" stop-color="#2E8B57"/>
</linearGradient>
<linearGradient id="paint1_linear_0_170" x1="12.065" y1="27.7399" x2="12.065" y2="16.3747" gradientUnits="userSpaceOnUse">
<stop stop-color="#9EC43C"/>
<stop offset="1" stop-color="#2E8B57"/>
</linearGradient>
<linearGradient id="paint2_linear_0_170" x1="12.1991" y1="33.6" x2="12.1991" y2="-13.8" gradientUnits="userSpaceOnUse">
<stop stop-color="#9EC43C"/>
<stop offset="1" stop-color="#2E8B57"/>
</linearGradient>
<linearGradient id="paint3_linear_0_170" x1="13.5703" y1="20.1167" x2="13.5703" y2="-1.10395" gradientUnits="userSpaceOnUse">
<stop stop-color="#9EC43C"/>
<stop offset="1" stop-color="#2E8B57"/>
</linearGradient>
</defs>
</svg>
