<svg width="26" height="24" viewBox="0 0 26 24" fill="none" xmlns="http://www.w3.org/2000/svg">
<path d="M20.3 22.5H17.8402L17.3402 21H8.25975L7.75975 22.5H5.29999C4.88553 22.5 4.54999 22.8355 4.54999 23.25C4.54999 23.6645 4.88553 24 5.29999 24H20.3C20.7144 24 21.05 23.6645 21.05 23.25C21.05 22.8355 20.7144 22.5 20.3 22.5Z" fill="url(#paint0_linear_0_139)"/>
<path d="M20.3 4.5C19.8861 4.5 19.55 4.83613 19.55 5.25C19.55 5.66387 19.8861 6 20.3 6C20.7139 6 21.05 5.66387 21.05 5.25C21.05 4.83613 20.7139 4.5 20.3 4.5Z" fill="url(#paint1_linear_0_139)"/>
<path d="M23.3 0H2.25C1.00937 0 0 1.00937 0 2.25V15H4.55V12.75C4.55 12.3355 4.88555 12 5.3 12H6.45879C6.53633 11.7818 6.625 11.5678 6.72539 11.3576L5.90566 10.5373C5.6127 10.2443 5.6127 9.76973 5.90566 9.47676L8.02676 7.35566C8.31973 7.0627 8.79434 7.0627 9.08731 7.35566L9.90762 8.17598C10.1178 8.07559 10.3316 7.98633 10.55 7.90859V6.75C10.55 6.33555 10.8855 6 11.3 6H14.3C14.7145 6 15.05 6.33555 15.05 6.75V7.90879C15.2682 7.98633 15.4822 8.07578 15.6924 8.17598L16.5127 7.35566C16.8057 7.06289 17.2803 7.06289 17.5732 7.35566L19.6943 9.47676C19.9873 9.76973 19.9873 10.2445 19.6943 10.5373L18.8746 11.3576C18.975 11.568 19.0637 11.7818 19.1412 12H20.3C20.7145 12 21.05 12.3355 21.05 12.75V15H25.6V2.25C25.6 1.00937 24.5406 0 23.3 0ZM20.3 7.5C19.0594 7.5 18.05 6.49062 18.05 5.25C18.05 4.00938 19.0594 3 20.3 3C21.5406 3 22.55 4.00938 22.55 5.25C22.55 6.49062 21.5406 7.5 20.3 7.5Z" fill="url(#paint2_linear_0_139)"/>
<path d="M10.55 14.25C10.55 14.5092 10.6098 14.7592 10.6955 15H14.9045C14.9902 14.7592 15.05 14.5092 15.05 14.25C15.05 13.0094 14.0406 12 12.8 12C11.5592 12 10.55 13.0094 10.55 14.25Z" fill="url(#paint3_linear_0_139)"/>
<path d="M7.73886 12.9375C7.65331 13.2686 7.35448 13.5 7.01229 13.5H6.04999V15H9.14862C9.09823 14.7529 9.04999 14.5047 9.04999 14.25C9.04999 12.1824 10.7324 10.5 12.8 10.5C14.8676 10.5 16.55 12.1824 16.55 14.25C16.55 14.5047 16.5017 14.7529 16.4514 15H19.55V13.5H18.5877C18.2455 13.5 17.9467 13.2686 17.8611 12.9375C17.7416 12.4725 17.5549 12.0227 17.3058 11.6008C17.1322 11.3064 17.1799 10.9314 17.4215 10.6896L18.1035 10.007L17.043 8.94648L16.3603 9.6291C16.1185 9.87168 15.7428 9.91992 15.4484 9.74414C15.0273 9.4959 14.5783 9.3084 14.1125 9.18887C13.7814 9.10332 13.55 8.80449 13.55 8.4623V7.5H12.05V8.4623C12.05 8.80449 11.8185 9.10332 11.4875 9.18887C11.0217 9.3084 10.5726 9.4959 10.1516 9.74414C9.85858 9.91992 9.48202 9.87168 9.23964 9.6291L8.55702 8.94648L7.49647 10.007L8.1785 10.6896C8.4201 10.9314 8.46776 11.3064 8.29413 11.6008C8.04511 12.0227 7.85839 12.4725 7.73886 12.9375Z" fill="url(#paint4_linear_0_139)"/>
<path d="M0 17.25C0 18.4906 1.00937 19.5 2.25 19.5H23.3C24.5406 19.5 25.6 18.4906 25.6 17.25V16.5H0V17.25Z" fill="url(#paint5_linear_0_139)"/>
<defs>
<linearGradient id="paint0_linear_0_139" x1="10.5573" y1="26.6" x2="10.5573" y2="18.7" gradientUnits="userSpaceOnUse">
<stop stop-color="#9EC43C"/>
<stop offset="1" stop-color="#2E8B57"/>
</linearGradient>
<linearGradient id="paint1_linear_0_139" x1="20.0961" y1="7.3" x2="20.0961" y2="3.35" gradientUnits="userSpaceOnUse">
<stop stop-color="#9EC43C"/>
<stop offset="1" stop-color="#2E8B57"/>
</linearGradient>
<linearGradient id="paint2_linear_0_139" x1="9.32039" y1="28" x2="9.3204" y2="-11.5" gradientUnits="userSpaceOnUse">
<stop stop-color="#9EC43C"/>
<stop offset="1" stop-color="#2E8B57"/>
</linearGradient>
<linearGradient id="paint3_linear_0_139" x1="12.1883" y1="17.6" x2="12.1883" y2="9.7" gradientUnits="userSpaceOnUse">
<stop stop-color="#9EC43C"/>
<stop offset="1" stop-color="#2E8B57"/>
</linearGradient>
<linearGradient id="paint4_linear_0_139" x1="10.965" y1="21.5" x2="10.965" y2="1.75" gradientUnits="userSpaceOnUse">
<stop stop-color="#9EC43C"/>
<stop offset="1" stop-color="#2E8B57"/>
</linearGradient>
<linearGradient id="paint5_linear_0_139" x1="9.32039" y1="22.1" x2="9.32039" y2="14.2" gradientUnits="userSpaceOnUse">
<stop stop-color="#9EC43C"/>
<stop offset="1" stop-color="#2E8B57"/>
</linearGradient>
</defs>
</svg>
