<svg width="21" height="24" viewBox="0 0 21 24" fill="none" xmlns="http://www.w3.org/2000/svg">
<path d="M14.7488 0C13.4693 0.088499 11.9738 0.90749 11.1023 1.97398C10.3073 2.94147 9.65331 4.37845 9.90831 5.77494C11.3063 5.81844 12.7508 4.97995 13.5878 3.89546C14.3708 2.88597 14.9633 1.45798 14.7488 0Z" fill="url(#paint0_linear_0_78)"/>
<path d="M19.8052 8.05166C18.5767 6.51118 16.8503 5.61719 15.2198 5.61719C13.0673 5.61719 12.1568 6.64768 10.6613 6.64768C9.11934 6.64768 7.94785 5.62019 6.08637 5.62019C4.25789 5.62019 2.31091 6.73767 1.07643 8.64865C-0.659055 11.3396 -0.362058 16.3991 2.45041 20.7085C3.4569 22.2505 4.80088 23.9845 6.55887 23.9995C8.12335 24.0145 8.56434 22.996 10.6838 22.9855C12.8033 22.9735 13.2053 24.013 14.7668 23.9965C16.5263 23.983 17.9437 22.0615 18.9502 20.5195C19.6717 19.414 19.9402 18.8575 20.4997 17.6096C16.4303 16.0601 15.7778 10.2731 19.8052 8.05166Z" fill="url(#paint1_linear_0_78)"/>
<defs>
<linearGradient id="paint0_linear_0_78" x1="11.6511" y1="10.7829" x2="11.6512" y2="-4.42869" gradientUnits="userSpaceOnUse">
<stop stop-color="#9EC43C"/>
<stop offset="1" stop-color="#2E8B57"/>
</linearGradient>
<linearGradient id="paint1_linear_0_78" x1="7.46349" y1="39.9311" x2="7.46351" y2="-8.47604" gradientUnits="userSpaceOnUse">
<stop stop-color="#9EC43C"/>
<stop offset="1" stop-color="#2E8B57"/>
</linearGradient>
</defs>
</svg>
