<svg width="27" height="24" viewBox="0 0 27 24" fill="none" xmlns="http://www.w3.org/2000/svg">
<path d="M25.3582 0H1.5119C0.810357 0 0.217677 0.447534 0.0483398 1.05231H26.8157C26.6464 0.447534 26.0537 0 25.3582 0Z" fill="url(#paint0_linear_0_149)"/>
<path d="M7.03346 17.4355L7.37214 16.7097L9.27113 12.6336C8.55145 12.4461 7.89225 12.0772 7.34795 11.5752L3.9854 16.7097L3.50762 17.4355L1.9473 19.8122L1.46953 20.538L1.2881 20.8162C1.28205 20.8283 1.26995 20.8404 1.26391 20.8525C0.653083 21.9773 0.894994 23.3018 1.79611 23.8038C2.69722 24.3057 3.94911 23.8098 4.58412 22.7031C4.59017 22.691 4.59622 22.6789 4.60227 22.6668L5.58805 20.544L5.92673 19.8183L7.03346 17.4355ZM3.81606 22.4007C3.62253 22.7333 3.26571 22.945 2.87261 22.945C2.27388 22.945 1.79611 22.4551 1.79611 21.8624C1.79611 21.2637 2.28598 20.7859 2.87866 20.7859C3.47134 20.7859 3.95516 21.2758 3.95516 21.8685C3.95516 22.056 3.90678 22.2374 3.81606 22.4007Z" fill="url(#paint1_linear_0_149)"/>
<path d="M3.05413 21.5542C2.9997 21.524 2.93922 21.5059 2.8727 21.5059C2.84246 21.5059 2.81222 21.5119 2.78198 21.518C2.5945 21.5663 2.47959 21.7659 2.52797 21.9534C2.55216 22.0441 2.61264 22.1227 2.69126 22.1711C2.8606 22.2739 3.07832 22.2195 3.18113 22.0502C3.28394 21.8808 3.22951 21.6631 3.06018 21.5603L3.05413 21.5542Z" fill="url(#paint2_linear_0_149)"/>
<path d="M8.52147 11.5453C10.3358 12.5976 12.6521 11.9747 13.7044 10.1664C14.2487 9.22295 14.3636 8.09807 14.0189 7.06391L13.4867 8.71494C13.4504 8.8238 13.3657 8.91452 13.2508 8.95081L11.4607 9.51929C11.3639 9.54953 11.2551 9.53744 11.1704 9.48906L8.9811 8.22508C8.89038 8.17669 8.82991 8.08598 8.80572 7.98921L8.40656 6.15069C8.38237 6.03579 8.41261 5.91483 8.49123 5.83016L9.65845 4.54199C7.60221 4.96534 6.2838 6.97319 6.7011 9.02338C6.91882 10.0878 7.58407 11.007 8.52147 11.5453Z" fill="url(#paint3_linear_0_149)"/>
<path d="M26.8641 16.7102V1.77832H0V16.7102H3.11459L6.84001 11.0253C5.31598 9.04772 5.67884 6.21132 7.65646 4.68124C8.485 4.04018 9.50707 3.70755 10.5533 3.73779C10.7529 3.74384 10.9102 3.91318 10.9041 4.11275C10.9041 4.19742 10.8678 4.28209 10.8134 4.34257L10.5715 4.60867L9.15025 6.17504L9.47683 7.67488L11.3879 8.77557L12.8515 8.3099L13.6074 5.96337C13.6679 5.76984 13.8736 5.66703 14.061 5.7275C14.1457 5.7517 14.2122 5.80613 14.2606 5.88475C15.573 8.00751 14.9198 10.7895 12.7971 12.1018C12.0774 12.5433 11.2549 12.7792 10.4082 12.7792C10.2751 12.7792 10.136 12.7731 10.003 12.761L8.16447 16.7042L26.8641 16.7102ZM23.0964 8.87839H23.8161V9.60412H23.0964V8.87839ZM21.5058 8.87839H22.2255V9.60412H21.5058V8.87839ZM20.0604 8.87839H20.7801V9.60412H20.0604V8.87839ZM18.5122 8.87839H19.2319V9.60412H18.5122V8.87839ZM17.0063 8.87839H17.726V9.60412H17.0063V8.87839Z" fill="url(#paint4_linear_0_149)"/>
<path d="M0 17.4355V18.4032C0 19.0503 0.471725 19.6006 1.11279 19.7639L2.63682 17.4355H0Z" fill="url(#paint5_linear_0_149)"/>
<path d="M10.644 22.7213H16.2201L15.7483 20.5381H11.1158L10.644 22.7213Z" fill="url(#paint6_linear_0_149)"/>
<path d="M6.73096 19.8123H25.358C26.1926 19.8123 26.87 19.1773 26.87 18.4032V17.4355H7.8377L6.73096 19.8123Z" fill="url(#paint7_linear_0_149)"/>
<path d="M8.75714 23.4473V23.9976H18.113V23.4473H17.0123H9.85783H8.75714Z" fill="url(#paint8_linear_0_149)"/>
<defs>
<linearGradient id="paint0_linear_0_149" x1="9.79374" y1="1.96431" x2="9.79374" y2="-0.806771" gradientUnits="userSpaceOnUse">
<stop stop-color="#9EC43C"/>
<stop offset="1" stop-color="#2E8B57"/>
</linearGradient>
<linearGradient id="paint1_linear_0_149" x1="3.96445" y1="34.7678" x2="3.96448" y2="2.04967" gradientUnits="userSpaceOnUse">
<stop stop-color="#9EC43C"/>
<stop offset="1" stop-color="#2E8B57"/>
</linearGradient>
<linearGradient id="paint2_linear_0_149" x1="2.77767" y1="22.8447" x2="2.77767" y2="20.956" gradientUnits="userSpaceOnUse">
<stop stop-color="#9EC43C"/>
<stop offset="1" stop-color="#2E8B57"/>
</linearGradient>
<linearGradient id="paint3_linear_0_149" x1="9.38751" y1="18.5707" x2="9.38753" y2="-1.21981" gradientUnits="userSpaceOnUse">
<stop stop-color="#9EC43C"/>
<stop offset="1" stop-color="#2E8B57"/>
</linearGradient>
<linearGradient id="paint4_linear_0_149" x1="9.78063" y1="29.6512" x2="9.78064" y2="-9.66948" gradientUnits="userSpaceOnUse">
<stop stop-color="#9EC43C"/>
<stop offset="1" stop-color="#2E8B57"/>
</linearGradient>
<linearGradient id="paint5_linear_0_149" x1="0.960007" y1="21.7819" x2="0.960011" y2="15.6505" gradientUnits="userSpaceOnUse">
<stop stop-color="#9EC43C"/>
<stop offset="1" stop-color="#2E8B57"/>
</linearGradient>
<linearGradient id="paint6_linear_0_149" x1="12.6742" y1="24.6135" x2="12.6742" y2="18.8643" gradientUnits="userSpaceOnUse">
<stop stop-color="#9EC43C"/>
<stop offset="1" stop-color="#2E8B57"/>
</linearGradient>
<linearGradient id="paint7_linear_0_149" x1="14.0631" y1="21.8722" x2="14.0631" y2="15.6134" gradientUnits="userSpaceOnUse">
<stop stop-color="#9EC43C"/>
<stop offset="1" stop-color="#2E8B57"/>
</linearGradient>
<linearGradient id="paint8_linear_0_149" x1="12.1634" y1="24.4746" x2="12.1634" y2="23.0253" gradientUnits="userSpaceOnUse">
<stop stop-color="#9EC43C"/>
<stop offset="1" stop-color="#2E8B57"/>
</linearGradient>
</defs>
</svg>
