<svg width="27" height="24" viewBox="0 0 27 24" fill="none" xmlns="http://www.w3.org/2000/svg">
<path d="M23.5826 8.34783V0.782609C23.5826 0.3504 23.2322 0 22.8 0H0.782609C0.3504 0 0 0.3504 0 0.782609V13.0435H17.3217V10.6957C17.3217 9.40106 18.3749 8.34783 19.6696 8.34783H23.5826Z" fill="url(#paint0_linear_0_180)"/>
<path d="M0 18.5214C0 18.9537 0.3504 19.3041 0.782609 19.3041H17.3217V14.6084H0V18.5214Z" fill="url(#paint1_linear_0_180)"/>
<path d="M15.7044 22.4344H14.9218V20.8691H8.66092V22.4344H7.87831C7.4461 22.4344 7.0957 22.7848 7.0957 23.217C7.0957 23.6492 7.4461 23.9996 7.87831 23.9996H15.7044C16.1366 23.9996 16.487 23.6492 16.487 23.217C16.487 22.7848 16.1366 22.4344 15.7044 22.4344Z" fill="url(#paint2_linear_0_180)"/>
<path d="M25.9302 9.91309H19.6693C19.2371 9.91309 18.8867 10.2635 18.8867 10.6957V23.2174C18.8867 23.6496 19.2371 24 19.6693 24H25.9302C26.3624 24 26.7128 23.6496 26.7128 23.2174V10.6957C26.7128 10.2635 26.3624 9.91309 25.9302 9.91309ZM22.7998 21.6522C22.3676 21.6522 22.0172 21.3018 22.0172 20.8696C22.0172 20.4374 22.3676 20.087 22.7998 20.087C23.232 20.087 23.5824 20.4374 23.5824 20.8696C23.5824 21.3018 23.232 21.6522 22.7998 21.6522Z" fill="url(#paint3_linear_0_180)"/>
<defs>
<linearGradient id="paint0_linear_0_180" x1="8.5859" y1="24.3478" x2="8.58591" y2="-10" gradientUnits="userSpaceOnUse">
<stop stop-color="#9EC43C"/>
<stop offset="1" stop-color="#2E8B57"/>
</linearGradient>
<linearGradient id="paint1_linear_0_180" x1="6.30646" y1="23.3736" x2="6.30646" y2="11.0084" gradientUnits="userSpaceOnUse">
<stop stop-color="#9EC43C"/>
<stop offset="1" stop-color="#2E8B57"/>
</linearGradient>
<linearGradient id="paint2_linear_0_180" x1="10.5149" y1="26.7126" x2="10.5149" y2="18.4691" gradientUnits="userSpaceOnUse">
<stop stop-color="#9EC43C"/>
<stop offset="1" stop-color="#2E8B57"/>
</linearGradient>
<linearGradient id="paint3_linear_0_180" x1="21.736" y1="36.2087" x2="21.7361" y2="-0.886918" gradientUnits="userSpaceOnUse">
<stop stop-color="#9EC43C"/>
<stop offset="1" stop-color="#2E8B57"/>
</linearGradient>
</defs>
</svg>
