<svg width="24" height="24" viewBox="0 0 24 24" fill="none" xmlns="http://www.w3.org/2000/svg">
<path d="M24 19.5266V9.48159C24 9.09328 23.6852 8.77847 23.2969 8.77847H15.4174C15.0291 8.77847 14.7142 9.09328 14.7142 9.48159V16.2101H12.7198V8.24123C12.7198 7.85292 12.405 7.53811 12.0166 7.53811H9.2857V0.703125C9.2857 0.314812 8.97089 0 8.58258 0H0.703125C0.314812 0 0 0.314812 0 0.703125V10.7481H9.2857V8.94436H11.3135V16.9133C11.3135 17.3016 11.6283 17.6164 12.0166 17.6164H14.7142V19.5266H24ZM5.63306 8.83791H3.65259C3.26428 8.83791 2.94947 8.52309 2.94947 8.13478C2.94947 7.74647 3.26428 7.43166 3.65259 7.43166H5.63306C6.02137 7.43166 6.33619 7.74647 6.33619 8.13478C6.33619 8.52309 6.02142 8.83791 5.63306 8.83791ZM5.63306 4.72266H3.65259C3.26428 4.72266 2.94947 4.40784 2.94947 4.01953C2.94947 3.63122 3.26428 3.31641 3.65259 3.31641H5.63306C6.02137 3.31641 6.33619 3.63122 6.33619 4.01953C6.33619 4.40784 6.02142 4.72266 5.63306 4.72266ZM20.3474 17.6164H18.3669C17.9786 17.6164 17.6638 17.3016 17.6638 16.9133C17.6638 16.525 17.9786 16.2102 18.3669 16.2102H20.3474C20.7357 16.2102 21.0505 16.525 21.0505 16.9133C21.0505 17.3016 20.7357 17.6164 20.3474 17.6164ZM20.3474 13.5011H18.3669C17.9786 13.5011 17.6638 13.1863 17.6638 12.798C17.6638 12.4097 17.9786 12.0949 18.3669 12.0949H20.3474C20.7357 12.0949 21.0505 12.4097 21.0505 12.798C21.0505 13.1863 20.7357 13.5011 20.3474 13.5011Z" fill="url(#paint0_linear_0_193)"/>
<path d="M14.7144 20.9326V23.2967C14.7144 23.685 15.0292 23.9998 15.4175 23.9998H23.297C23.6853 23.9998 24.0001 23.685 24.0001 23.2967V20.9326H14.7144Z" fill="url(#paint1_linear_0_193)"/>
<path d="M0 12.1543V14.5183C0 14.9067 0.314813 15.2215 0.703125 15.2215H8.58258C8.97089 15.2215 9.2857 14.9067 9.2857 14.5183V12.1543H0Z" fill="url(#paint2_linear_0_193)"/>
<defs>
<linearGradient id="paint0_linear_0_193" x1="8.73786" y1="36.4496" x2="8.73789" y2="-14.9704" gradientUnits="userSpaceOnUse">
<stop stop-color="#9EC43C"/>
<stop offset="1" stop-color="#2E8B57"/>
</linearGradient>
<linearGradient id="paint1_linear_0_193" x1="18.0951" y1="26.658" x2="18.0951" y2="18.5811" gradientUnits="userSpaceOnUse">
<stop stop-color="#9EC43C"/>
<stop offset="1" stop-color="#2E8B57"/>
</linearGradient>
<linearGradient id="paint2_linear_0_193" x1="3.38072" y1="17.8797" x2="3.38072" y2="9.8028" gradientUnits="userSpaceOnUse">
<stop stop-color="#9EC43C"/>
<stop offset="1" stop-color="#2E8B57"/>
</linearGradient>
</defs>
</svg>
