<svg width="22" height="24" viewBox="0 0 22 24" fill="none" xmlns="http://www.w3.org/2000/svg">
<path d="M20.7243 5.53695C19.8302 4.13659 17.9074 3.55487 15.3167 3.88876C15.2251 3.89949 15.1282 3.91569 15.0366 3.92642C14.999 3.84037 14.9613 3.75411 14.9182 3.66806C13.8033 1.30349 12.2791 0.00012207 10.6201 0.00012207C8.96121 0.00012207 7.43168 1.30349 6.32208 3.66806C6.28442 3.75411 6.24129 3.84037 6.20363 3.92642C6.10664 3.91043 6.01512 3.89949 5.9236 3.88876C3.3276 3.5494 1.41011 4.13659 0.515955 5.53695C-0.377991 6.9373 -0.103432 8.92464 1.28619 11.1329C1.46944 11.4239 1.66868 11.7146 1.88412 12.0001C1.66868 12.2909 1.46944 12.5764 1.28619 12.8671C-0.103432 15.0754 -0.377991 17.0682 0.515955 18.4633C1.24306 19.6051 2.65436 20.203 4.55544 20.203C5.01114 20.2005 5.46622 20.17 5.91813 20.1113C6.00965 20.1005 6.10664 20.0843 6.19816 20.0736C6.23603 20.1599 6.27369 20.2459 6.31682 20.3322C7.43168 22.6965 8.95595 24.0001 10.6147 24.0001C12.2736 24.0001 13.8033 22.6965 14.9127 20.3322C14.9504 20.2459 14.9935 20.1599 15.0312 20.0736C15.1282 20.0898 15.2197 20.1005 15.3114 20.1113C15.7629 20.1725 16.2182 20.203 16.6739 20.203C18.5752 20.203 19.9863 19.6051 20.7134 18.4633C21.6075 17.0629 21.3328 15.0754 19.9433 12.8671C19.7601 12.5764 19.5609 12.2856 19.3454 12.0001C19.5609 11.7092 19.7601 11.4239 19.9433 11.1329C21.349 8.91938 21.6237 6.93183 20.7243 5.53695ZM7.29703 4.12586C8.20717 2.18691 9.41902 1.07732 10.6201 1.07732C11.8212 1.07732 13.0331 2.18691 13.9432 4.12586C13.9439 4.12986 13.9458 4.13365 13.9487 4.13659C12.8046 4.41178 11.6887 4.79217 10.6147 5.27291C9.54189 4.78986 8.42556 4.40926 7.28083 4.13659C7.29156 4.13659 7.29156 4.13112 7.29703 4.12586ZM15.473 12.0001C15.4732 12.8619 15.4265 13.7232 15.3329 14.5799C14.6615 15.1217 13.9603 15.6251 13.2323 16.088C12.3922 16.6274 11.5179 17.1115 10.6147 17.5369C9.71335 17.1082 8.83897 16.6243 7.9972 16.088C7.2701 15.6239 6.56887 15.1204 5.89667 14.5799C5.70985 12.865 5.70985 11.135 5.89667 9.42011C7.34836 8.2535 8.93197 7.26109 10.6147 6.46329C11.5162 6.89186 12.3904 7.37576 13.2323 7.91204C13.9594 8.37616 14.6607 8.87962 15.3329 9.42011C15.4265 10.277 15.4732 11.1382 15.473 12.0001ZM16.5016 10.4327C17.029 10.924 17.5255 11.4474 17.9882 12.0001C17.5255 12.5526 17.029 13.0761 16.5016 13.5673C16.534 13.0504 16.5502 12.528 16.5502 12.0001C16.5502 11.4723 16.534 10.9499 16.5016 10.4327ZM15.112 16.1097C14.942 17.0421 14.6952 17.959 14.3741 18.851C13.5376 18.6621 12.7167 18.4101 11.9182 18.097C12.5536 17.7631 13.1892 17.3968 13.8193 16.9984C14.2611 16.7129 14.692 16.4166 15.112 16.1097ZM9.32203 18.097C8.52507 18.4141 7.70371 18.6663 6.86615 18.851C6.54509 17.959 6.29831 17.0421 6.12831 16.1097C6.54299 16.4166 6.97387 16.7129 7.42095 16.9929C8.05106 17.3968 8.68665 17.7631 9.32203 18.097ZM4.73869 13.5673C4.21124 13.0761 3.71493 12.5526 3.25207 12.0001C3.71493 11.4474 4.21124 10.924 4.73869 10.4327C4.70629 10.9499 4.69009 11.4723 4.69009 12.0001C4.69009 12.528 4.70629 13.0504 4.73869 13.5673ZM6.12831 7.89058C6.29831 6.95792 6.54509 6.04104 6.86615 5.1492C7.70266 5.33792 8.52381 5.58997 9.32203 5.90324C8.68665 6.23713 8.05106 6.60341 7.42095 7.00189C6.97913 7.28739 6.54825 7.58362 6.12831 7.89058ZM13.8141 7.00189C13.1892 6.60341 12.5536 6.23166 11.9128 5.90324C12.7097 5.58618 13.5311 5.33392 14.3689 5.1492C14.6897 6.04104 14.9365 6.95792 15.1067 7.89058C14.692 7.58362 14.2611 7.28739 13.8141 7.00189ZM2.19655 10.5566C1.05455 8.74687 0.774524 7.12581 1.42084 6.11321C1.93798 5.30531 3.05831 4.86896 4.57164 4.86896C4.97685 4.87064 5.38164 4.89778 5.78348 4.94975H5.79421C5.3585 6.21672 5.05532 7.52534 4.88954 8.85458C4.05955 9.54698 3.28679 10.3054 2.57883 11.1222C2.44418 10.9391 2.315 10.7506 2.19655 10.5566ZM5.77822 19.045C5.37638 19.0972 4.97159 19.1241 4.56638 19.1258C3.05283 19.1258 1.93251 18.6949 1.41558 17.8816C0.769265 16.869 1.04929 15.2479 2.19108 13.4381C2.30953 13.2496 2.43892 13.0556 2.57357 12.8671C3.28132 13.6841 4.05408 14.4423 4.88407 15.1347C5.05006 16.4642 5.35324 17.7728 5.78895 19.0396C5.78895 19.045 5.78348 19.045 5.77822 19.045ZM13.9432 19.8744C13.0331 21.8133 11.8212 22.9229 10.6201 22.9229C9.41902 22.9229 8.20717 21.8133 7.29703 19.8744C7.2964 19.8704 7.2945 19.8666 7.29156 19.8636C8.43566 19.5885 9.55156 19.2081 10.6256 18.7271C11.6984 19.2104 12.8147 19.591 13.9594 19.8636C13.9487 19.8636 13.9487 19.8689 13.9432 19.8744ZM19.0437 13.4436C20.1857 15.2532 20.4657 16.8744 19.8194 17.887C19.1731 18.8994 17.5842 19.3251 15.462 19.045H15.4513C15.887 17.7781 16.1904 16.4694 16.3562 15.1402C17.1862 14.4478 17.9589 13.6893 18.6667 12.8726C18.7961 13.0611 18.9253 13.2496 19.0437 13.4436ZM16.3507 8.86005C16.1849 7.5306 15.8818 6.22198 15.4461 4.95522H15.4568C17.5788 4.68045 19.1676 5.1006 19.814 6.11321C20.4603 7.12581 20.1802 8.74687 19.0385 10.5566C18.92 10.7451 18.7906 10.9391 18.656 11.1276C17.9514 10.3094 17.1803 9.55097 16.3507 8.86005Z" fill="url(#paint0_linear_0_73)"/>
<path d="M10.6201 9.86719C9.44214 9.86719 8.48718 10.8221 8.48718 12.0001C8.48718 13.1781 9.44214 14.1328 10.6201 14.1328C11.7981 14.1328 12.753 13.1781 12.753 12.0001C12.7522 10.8224 11.7977 9.86803 10.6201 9.86719ZM10.6201 13.0556C10.0371 13.0556 9.56438 12.5831 9.56438 12.0001C9.56438 11.4171 10.0371 10.9444 10.6201 10.9444C11.2031 10.9444 11.6758 11.4171 11.6758 12.0001C11.6748 12.5827 11.2027 13.0548 10.6201 13.0556Z" fill="url(#paint1_linear_0_73)"/>
<defs>
<linearGradient id="paint0_linear_0_73" x1="7.73427" y1="44.8001" x2="7.73432" y2="-18.3999" gradientUnits="userSpaceOnUse">
<stop stop-color="#9EC43C"/>
<stop offset="1" stop-color="#2E8B57"/>
</linearGradient>
<linearGradient id="paint1_linear_0_73" x1="10.0403" y1="17.8297" x2="10.0403" y2="6.59685" gradientUnits="userSpaceOnUse">
<stop stop-color="#9EC43C"/>
<stop offset="1" stop-color="#2E8B57"/>
</linearGradient>
</defs>
</svg>
