<svg width="26" height="24" viewBox="0 0 26 24" fill="none" xmlns="http://www.w3.org/2000/svg">
<path d="M17.9729 16.479C17.7635 19.2984 16.3498 21.7878 14.2456 23.4333C15.1771 23.7988 16.1906 23.9998 17.2502 23.9998C21.7992 23.9998 25.5002 20.2989 25.5002 15.7498C25.5002 13.1651 24.3051 10.8547 22.4388 9.34082C22.1033 12.3399 20.4018 14.9318 17.9729 16.479Z" fill="url(#paint0_linear_0_200)"/>
<path d="M12.7497 7.10265C15.3122 5.7637 18.2837 5.6655 20.851 6.68955C20.1195 2.88415 16.7654 0 12.7497 0C8.73409 0 5.37989 2.88415 4.64844 6.68955C7.22189 5.66305 10.1934 5.7668 12.7497 7.10265Z" fill="url(#paint1_linear_0_200)"/>
<path d="M7.56145 14.6596C7.86005 11.9894 9.24095 9.64169 11.2547 8.06684C9.1134 7.22659 6.64185 7.30604 4.50195 8.40199C4.54775 10.9252 5.73195 13.1754 7.56145 14.6596Z" fill="url(#paint2_linear_0_200)"/>
<path d="M8.25 23.9998C9.3096 23.9998 10.3231 23.7988 11.2545 23.4333C9.1504 21.7878 7.7367 19.2984 7.5272 16.479C5.0984 14.9318 3.3969 12.3399 3.0614 9.34082C1.1951 10.8547 0 13.1651 0 15.7498C0 20.2989 3.70095 23.9998 8.25 23.9998Z" fill="url(#paint3_linear_0_200)"/>
<path d="M9.14844 17.3105C9.57759 19.5437 10.9098 21.4593 12.7491 22.6613C14.5886 21.4594 15.9219 19.5443 16.3512 17.311C14.0458 18.2306 11.455 18.2312 9.14844 17.3105Z" fill="url(#paint4_linear_0_200)"/>
<path d="M14.2451 8.06699C16.2587 9.64169 17.6401 11.9891 17.9389 14.6593C19.7686 13.1751 20.9523 10.9251 20.9981 8.40184C18.8545 7.30409 16.3826 7.22814 14.2451 8.06699Z" fill="url(#paint5_linear_0_200)"/>
<path d="M16.4981 15.5985C16.4469 12.7712 14.9663 10.287 12.7501 8.83887C10.5337 10.2869 9.05325 12.7711 9.00195 15.5983C11.3504 16.8012 14.1493 16.8014 16.4981 15.5985Z" fill="url(#paint6_linear_0_200)"/>
<defs>
<linearGradient id="paint0_linear_0_200" x1="18.3431" y1="36.7043" x2="18.3432" y2="-1.89775" gradientUnits="userSpaceOnUse">
<stop stop-color="#9EC43C"/>
<stop offset="1" stop-color="#2E8B57"/>
</linearGradient>
<linearGradient id="paint1_linear_0_200" x1="10.5474" y1="13.2583" x2="10.5474" y2="-5.44537" gradientUnits="userSpaceOnUse">
<stop stop-color="#9EC43C"/>
<stop offset="1" stop-color="#2E8B57"/>
</linearGradient>
<linearGradient id="paint2_linear_0_200" x1="6.96046" y1="20.8647" x2="6.96047" y2="2.01094" gradientUnits="userSpaceOnUse">
<stop stop-color="#9EC43C"/>
<stop offset="1" stop-color="#2E8B57"/>
</linearGradient>
<linearGradient id="paint3_linear_0_200" x1="4.09753" y1="36.7043" x2="4.09756" y2="-1.89775" gradientUnits="userSpaceOnUse">
<stop stop-color="#9EC43C"/>
<stop offset="1" stop-color="#2E8B57"/>
</linearGradient>
<linearGradient id="paint4_linear_0_200" x1="11.7708" y1="27.2987" x2="11.7708" y2="13.2083" gradientUnits="userSpaceOnUse">
<stop stop-color="#9EC43C"/>
<stop offset="1" stop-color="#2E8B57"/>
</linearGradient>
<linearGradient id="paint5_linear_0_200" x1="16.7037" y1="20.864" x2="16.7037" y2="2.01121" gradientUnits="userSpaceOnUse">
<stop stop-color="#9EC43C"/>
<stop offset="1" stop-color="#2E8B57"/>
</linearGradient>
<linearGradient id="paint6_linear_0_200" x1="11.7311" y1="23.1407" x2="11.7311" y2="2.96489" gradientUnits="userSpaceOnUse">
<stop stop-color="#9EC43C"/>
<stop offset="1" stop-color="#2E8B57"/>
</linearGradient>
</defs>
</svg>
