<svg width="29" height="24" viewBox="0 0 29 24" fill="none" xmlns="http://www.w3.org/2000/svg">
<path d="M28.5297 2.12447C28.5297 0.953025 27.5766 0 26.4052 0H2.12484C0.953392 0 0.000366211 0.953083 0.000366211 2.12447V4.90875H28.5302L28.5297 2.12447ZM3.98217 3.14489H3.74183C3.57419 3.14489 3.43843 3.00889 3.43843 2.84149C3.43843 2.67407 3.57442 2.53808 3.74183 2.53808H3.98217C4.14981 2.53808 4.28558 2.67408 4.28558 2.84149C4.2858 3.0089 4.14981 3.14489 3.98217 3.14489ZM6.35621 3.14489H6.11519C5.94755 3.14489 5.81179 3.00889 5.81179 2.84149C5.81179 2.67407 5.94778 2.53808 6.11519 2.53808H6.35621C6.52384 2.53808 6.65961 2.67408 6.65961 2.84149C6.65983 3.0089 6.52384 3.14489 6.35621 3.14489ZM8.72978 3.14489H8.48944C8.3218 3.14489 8.18604 3.00889 8.18604 2.84149C8.18604 2.67407 8.32203 2.53808 8.48944 2.53808H8.72978C8.89719 2.53808 9.03318 2.67408 9.03318 2.84149C9.03318 3.0089 8.89719 3.14489 8.72978 3.14489Z" fill="url(#paint0_linear_0_112)"/>
<path d="M0.000349766 21.8754C0.000349766 23.0469 0.953433 23.9999 2.12482 23.9999H26.4052C27.5762 23.9999 28.5296 23.0468 28.5296 21.8754L28.5299 5.51562H0L0.000349766 21.8754ZM15.6915 8.39843H25.8623C26.0306 8.39843 26.1657 8.53375 26.1657 8.70183C26.1657 8.86947 26.0304 9.00523 25.8623 9.00523L15.6915 9.00545C15.5238 9.00545 15.3881 8.86946 15.3881 8.70205C15.3881 8.53374 15.5241 8.39842 15.6915 8.39842V8.39843ZM15.6915 11.355H25.8623C26.0306 11.355 26.1657 11.491 26.1657 11.6584C26.1657 11.8265 26.0304 11.9619 25.8623 11.9619L15.6915 11.9621C15.5238 11.9621 15.3881 11.8268 15.3881 11.6587C15.3881 11.491 15.5241 11.355 15.6915 11.355V11.355ZM15.6915 14.3125H25.8623C26.0306 14.3125 26.1657 14.4485 26.1657 14.6159C26.1657 14.784 26.0304 14.9193 25.8623 14.9193L15.6915 14.9196C15.5238 14.9196 15.3881 14.7842 15.3881 14.6162C15.3881 14.4485 15.5241 14.3125 15.6915 14.3125V14.3125ZM15.6915 17.2698H25.8623C26.0306 17.2698 26.1657 17.4058 26.1657 17.5732C26.1657 17.7409 26.0304 17.8766 25.8623 17.8766L15.6915 17.8769C15.5238 17.8769 15.3881 17.7409 15.3881 17.5735C15.3881 17.4058 15.5241 17.2698 15.6915 17.2698V17.2698ZM6.39905 10.222C7.14388 9.47288 8.17641 9.13537 9.23244 9.29875C10.62 9.507 11.7357 10.6232 11.944 12.0121C12.1031 13.0603 11.771 14.0874 11.0335 14.8291C10.4119 15.4543 9.58696 15.7925 8.71471 15.7925C8.55134 15.7925 8.38572 15.7811 8.21988 15.7566H8.21876C6.82987 15.5472 5.70875 14.4375 5.49262 13.0567C5.32476 12.0049 5.65487 10.971 6.399 10.222H6.39905ZM2.6224 21.2672C2.6224 18.7239 4.18789 16.5386 6.40348 15.6279C6.9019 16.0043 7.49617 16.2592 8.13345 16.3564C8.32757 16.3867 8.52258 16.3988 8.71627 16.3988C9.56049 16.3988 10.3679 16.1318 11.0295 15.628C13.2451 16.5384 14.8106 18.7237 14.8106 21.2672V21.4979C14.8106 21.9714 14.6771 22.4144 14.441 22.7846H2.99194C2.75586 22.4143 2.62233 21.9711 2.62233 21.4979L2.6224 21.2672Z" fill="url(#paint1_linear_0_112)"/>
<defs>
<linearGradient id="paint0_linear_0_112" x1="10.3875" y1="9.163" x2="10.3875" y2="-3.76338" gradientUnits="userSpaceOnUse">
<stop stop-color="#9EC43C"/>
<stop offset="1" stop-color="#2E8B57"/>
</linearGradient>
<linearGradient id="paint1_linear_0_112" x1="10.3871" y1="40.0196" x2="10.3871" y2="-8.65567" gradientUnits="userSpaceOnUse">
<stop stop-color="#9EC43C"/>
<stop offset="1" stop-color="#2E8B57"/>
</linearGradient>
</defs>
</svg>
