<svg width="80" height="80" viewBox="0 0 80 80" fill="none" xmlns="http://www.w3.org/2000/svg">
<circle cx="35" cy="35" r="35" fill="url(#paint0_linear_0_1072)" fill-opacity="0.18"/>
<path d="M76 65.1664L63.9438 65.169L59.5004 60.723C58.2349 59.4581 55.7382 58.4253 53.9527 58.4253H43.075C41.2784 58.4253 39.8276 59.8813 39.823 61.6753C39.825 63.4719 41.2784 64.9253 43.075 64.9253H50.6559L47.404 68.1714L43.075 68.1753C39.7359 68.1753 37.0066 65.6325 36.6471 62.3825L29.5459 55.2877C28.2784 54.0183 26.2218 54.0163 24.9536 55.2832C23.6855 56.5526 23.6796 58.6138 24.9549 59.8813L37.368 72.3015C38.2149 73.1439 39.8692 73.9414 41.0587 74.0708L58.6626 76H76V65.1664Z" fill="url(#paint1_linear_0_1072)"/>
<path d="M69.4999 32.6664L66.2499 39.1664C66.2499 34.3805 62.3694 30.5 57.5835 30.5H51.6249V27.25L54.3335 26.1664V24H45.667V26.1664L48.3749 27.25V30.5H42.4157C37.6298 30.5 33.7499 34.3805 33.7499 39.1664L30.4999 32.6664L28.3335 33.75L30.4999 42.4164L33.7499 43.5V47.8335C33.7499 50.2288 35.6889 52.1664 38.0835 52.1664H45.667L46.7499 48.9164H53.2499L54.3335 52.1664H61.9164C64.3123 52.1664 66.2499 50.2288 66.2499 47.8335V43.5L69.4999 42.4164L71.6663 33.75L69.4999 32.6664ZM44.5835 42.4164C43.3868 42.4164 42.417 41.4453 42.417 40.25C42.417 39.0546 43.3868 38.0835 44.5835 38.0835C45.7801 38.0835 46.7499 39.0546 46.7499 40.25C46.7499 41.4453 45.7801 42.4164 44.5835 42.4164ZM55.4164 42.4164C54.221 42.4164 53.2499 41.4453 53.2499 40.25C53.2499 39.0546 54.221 38.0835 55.4164 38.0835C56.6124 38.0835 57.5835 39.0546 57.5835 40.25C57.5835 41.4453 56.6124 42.4164 55.4164 42.4164Z" fill="url(#paint2_linear_0_1072)"/>
<defs>
<linearGradient id="paint0_linear_0_1072" x1="0" y1="0" x2="65" y2="70" gradientUnits="userSpaceOnUse">
<stop stop-color="#A4CE3B"/>
<stop offset="1" stop-color="#52C5D7"/>
</linearGradient>
<linearGradient id="paint1_linear_0_1072" x1="42.9324" y1="94.7768" x2="42.9324" y2="37.724" gradientUnits="userSpaceOnUse">
<stop stop-color="#9EC43C"/>
<stop offset="1" stop-color="#2E8B57"/>
</linearGradient>
<linearGradient id="paint2_linear_0_1072" x1="44.11" y1="76.5773" x2="44.11" y2="2.40574" gradientUnits="userSpaceOnUse">
<stop stop-color="#9EC43C"/>
<stop offset="1" stop-color="#2E8B57"/>
</linearGradient>
</defs>
</svg>
