<svg width="92" height="92" viewBox="0 0 92 92" fill="none" xmlns="http://www.w3.org/2000/svg">
<g filter="url(#filter0_d_0_1351)">
<rect x="6" y="4" width="80" height="80" rx="12" fill="white"/>
</g>
<path d="M44.8348 61.1882L58.5098 58.7702L58.6365 58.7416L51.6029 50.3724C49.2441 47.5812 46.8982 44.7792 44.5653 41.9665C44.5653 41.9256 51.8316 21.9155 51.8725 21.8461C55.8927 28.7286 59.8874 35.6261 63.8565 42.5383L75.9058 63.4306L75.9998 63.5899L31.2824 63.5858L44.8348 61.1882ZM17.9995 58.6395C17.9995 58.6272 21.3121 52.8721 25.3639 45.8508L32.7324 33.0785L41.3181 25.8734C46.0398 21.9155 49.916 18.6602 49.9282 18.6602C49.8978 18.781 49.8525 18.8976 49.7935 19.0073L40.4644 39.0052L31.3151 58.6436L24.6573 58.6517C20.9935 58.6558 17.9995 58.6517 17.9995 58.6395Z" fill="#0089D6"/>
<defs>
<filter id="filter0_d_0_1351" x="0" y="0" width="92" height="92" filterUnits="userSpaceOnUse" color-interpolation-filters="sRGB">
<feFlood flood-opacity="0" result="BackgroundImageFix"/>
<feColorMatrix in="SourceAlpha" type="matrix" values="0 0 0 0 0 0 0 0 0 0 0 0 0 0 0 0 0 0 127 0" result="hardAlpha"/>
<feOffset dy="2"/>
<feGaussianBlur stdDeviation="3"/>
<feComposite in2="hardAlpha" operator="out"/>
<feColorMatrix type="matrix" values="0 0 0 0 0 0 0 0 0 0 0 0 0 0 0 0 0 0 0.04 0"/>
<feBlend mode="normal" in2="BackgroundImageFix" result="effect1_dropShadow_0_1351"/>
<feBlend mode="normal" in="SourceGraphic" in2="effect1_dropShadow_0_1351" result="shape"/>
</filter>
</defs>
</svg>
