<svg width="26" height="26" viewBox="0 0 26 26" fill="none" xmlns="http://www.w3.org/2000/svg">
<path d="M12.9307 25.4304C19.8342 25.4304 25.4307 19.834 25.4307 12.9304C25.4307 6.02686 19.8342 0.43042 12.9307 0.43042C6.0271 0.43042 0.430664 6.02686 0.430664 12.9304C0.430664 19.834 6.0271 25.4304 12.9307 25.4304Z" fill="url(#paint0_linear_0_908)"/>
<path fill-rule="evenodd" clip-rule="evenodd" d="M7.94395 12.051C7.48361 11.7435 6.86868 11.8134 6.4879 12.2158C6.10769 12.6176 6.07189 13.2359 6.40436 13.6786L9.8143 18.2252C10.02 18.4992 10.3383 18.6662 10.681 18.6793C11.0231 18.6918 11.3533 18.5497 11.579 18.2917L19.5355 9.19853C19.9282 8.75012 19.9072 8.07438 19.4877 7.65041C19.0683 7.22644 18.3932 7.19916 17.9402 7.58676L10.6378 13.8463L7.94395 12.051Z" fill="#FAFAFA"/>
<defs>
<linearGradient id="paint0_linear_0_908" x1="9.5326" y1="47.0971" x2="9.53264" y2="-18.7363" gradientUnits="userSpaceOnUse">
<stop stop-color="#9EC43C"/>
<stop offset="1" stop-color="#2E8B57"/>
</linearGradient>
</defs>
</svg>
