<svg width="92" height="92" viewBox="0 0 92 92" fill="none" xmlns="http://www.w3.org/2000/svg">
<g filter="url(#filter0_d_0_1316)">
<rect x="6" y="4" width="80" height="80" rx="12" fill="white"/>
</g>
<g clip-path="url(#clip0_0_1316)">
<path d="M73.8004 42.9208C73.4009 42.5213 68.2736 36.0623 67.408 34.9969C66.4758 33.9315 66.0763 34.1313 65.477 34.1979C64.8777 34.2645 58.4187 35.3965 57.6863 35.463C56.9538 35.5962 56.4877 35.8626 56.9538 36.5284C57.3533 37.1277 61.6149 43.1206 62.5471 44.5189L45.5673 48.5808L32.1167 26.0076C31.584 25.2086 31.4508 24.9422 30.2522 25.0088C29.0537 25.0754 19.6648 25.8745 18.999 25.8745C18.3331 25.941 17.6006 26.2074 18.2665 27.8055C18.9324 29.4036 29.5864 52.3097 29.8527 52.9755C30.1191 53.6414 30.9181 54.7068 32.716 54.3073C34.5804 53.8412 40.9728 52.1765 44.5019 51.2443C46.3664 54.5736 50.0953 61.3655 50.8278 62.3643C51.76 63.6961 52.4258 63.4297 53.8242 63.0302C54.9562 62.6973 71.2701 56.8376 72.0025 56.5047C72.735 56.1717 73.2011 55.972 72.6684 55.2395C72.2689 54.7068 68.0073 48.9137 65.7433 45.9173C67.2748 45.5177 72.8016 44.0528 73.4009 43.8531C74.0667 43.6533 74.1999 43.3204 73.8004 42.9208ZM42.9704 49.2466C42.7707 49.3132 33.2487 51.5772 32.7826 51.7104C32.2499 51.8435 32.2499 51.777 32.2499 51.5772C32.1167 51.3774 20.93 28.205 20.7302 27.9387C20.5971 27.6723 20.5971 27.406 20.7302 27.406C20.8634 27.406 29.7195 26.6069 29.9859 26.6069C30.3188 26.6069 30.2522 26.6735 30.3854 26.8733C30.3854 26.8733 42.8373 48.381 43.037 48.7139C43.3034 49.0469 43.1702 49.18 42.9704 49.2466ZM69.7386 54.2407C69.8717 54.507 70.0715 54.6402 69.5388 54.7734C69.0727 54.9731 53.4912 60.2336 53.1583 60.3667C52.8254 60.4999 52.6256 60.5665 52.2261 59.9672C51.8266 59.3679 46.7659 50.645 46.7659 50.645L63.3462 46.3168C63.7457 46.1836 63.8789 46.117 64.1452 46.5165C64.4116 46.9827 69.6054 54.0409 69.7386 54.2407ZM70.804 42.5213C70.4044 42.5879 64.345 44.1194 64.345 44.1194L59.3509 37.3275C59.2178 37.1277 59.0846 36.928 59.4175 36.8614C59.7505 36.7948 65.4104 35.796 65.6767 35.7294C65.9431 35.6628 66.1428 35.5962 66.4758 36.0623C66.8087 36.4619 71.0703 41.922 71.2701 42.1218C71.4698 42.3215 71.2035 42.4547 70.804 42.5213Z" fill="#FB503B"/>
</g>
<defs>
<filter id="filter0_d_0_1316" x="0" y="0" width="92" height="92" filterUnits="userSpaceOnUse" color-interpolation-filters="sRGB">
<feFlood flood-opacity="0" result="BackgroundImageFix"/>
<feColorMatrix in="SourceAlpha" type="matrix" values="0 0 0 0 0 0 0 0 0 0 0 0 0 0 0 0 0 0 127 0" result="hardAlpha"/>
<feOffset dy="2"/>
<feGaussianBlur stdDeviation="3"/>
<feComposite in2="hardAlpha" operator="out"/>
<feColorMatrix type="matrix" values="0 0 0 0 0 0 0 0 0 0 0 0 0 0 0 0 0 0 0.04 0"/>
<feBlend mode="normal" in2="BackgroundImageFix" result="effect1_dropShadow_0_1316"/>
<feBlend mode="normal" in="SourceGraphic" in2="effect1_dropShadow_0_1316" result="shape"/>
</filter>
<clipPath id="clip0_0_1316">
<rect width="56" height="38.3712" fill="white" transform="translate(18 25)"/>
</clipPath>
</defs>
</svg>
