<svg width="80" height="80" viewBox="0 0 80 80" fill="none" xmlns="http://www.w3.org/2000/svg">
<circle cx="35" cy="35" r="35" fill="url(#paint0_linear_0_936)" fill-opacity="0.18"/>
<path fill-rule="evenodd" clip-rule="evenodd" d="M61.9475 41.225L56.495 57.59C56.1675 58.57 56.6975 59.6325 57.68 59.96C58.6625 60.2875 59.725 59.7575 60.0525 58.775L65.505 42.41C65.8325 41.43 65.3025 40.3675 64.32 40.04C63.3375 39.7125 62.275 40.2425 61.9475 41.225Z" fill="url(#paint1_linear_0_936)"/>
<path fill-rule="evenodd" clip-rule="evenodd" d="M66.72 45.8725L70.8475 50L66.72 54.1275C65.9875 54.86 65.9875 56.0475 66.72 56.78C67.4525 57.5125 68.64 57.5125 69.3725 56.78L74.825 51.325C75.5575 50.5925 75.5575 49.4075 74.825 48.675L69.3725 43.22C68.64 42.4875 67.4525 42.4875 66.72 43.22C65.9875 43.9525 65.9875 45.14 66.72 45.8725Z" fill="url(#paint2_linear_0_936)"/>
<path fill-rule="evenodd" clip-rule="evenodd" d="M52.6276 43.22L47.1751 48.675C46.4426 49.4075 46.4426 50.5925 47.1751 51.325L52.6276 56.78C53.3601 57.5125 54.5476 57.5125 55.2801 56.78C56.0126 56.0475 56.0126 54.86 55.2801 54.1275L51.1526 50L55.2801 45.8725C56.0126 45.14 56.0126 43.9525 55.2801 43.22C54.5476 42.4875 53.3601 42.4875 52.6276 43.22Z" fill="url(#paint3_linear_0_936)"/>
<path fill-rule="evenodd" clip-rule="evenodd" d="M62.875 58.21L62.4225 59.565C61.66 61.855 59.18 63.095 56.89 62.3325C55.625 61.91 54.68 60.9675 54.2175 59.82C53.0125 59.8925 51.7825 59.4675 50.86 58.5475L45.4075 53.0925C43.6975 51.385 43.6975 48.615 45.4075 46.9075L50.86 41.4525C52.5675 39.745 55.34 39.745 57.0475 41.4525C57.8175 42.2225 58.24 43.2075 58.3175 44.215L59.5775 40.435C60.0925 38.89 61.385 37.825 62.875 37.5275V30C62.875 28.1775 62.15 26.4275 60.8625 25.1375C59.5725 23.85 57.8225 23.125 56 23.125C49.89 23.125 39.61 23.125 33.5 23.125C31.6775 23.125 29.9275 23.85 28.6375 25.1375C27.35 26.4275 26.625 28.1775 26.625 30V70C26.625 71.8225 27.35 73.5725 28.6375 74.8625C29.9275 76.15 31.6775 76.875 33.5 76.875H56C57.8225 76.875 59.5725 76.15 60.8625 74.8625C62.15 73.5725 62.875 71.8225 62.875 70V58.21ZM39.75 70.625H49.75C50.785 70.625 51.625 69.785 51.625 68.75C51.625 67.715 50.785 66.875 49.75 66.875H39.75C38.715 66.875 37.875 67.715 37.875 68.75C37.875 69.785 38.715 70.625 39.75 70.625ZM54.75 26.875H34.75L36.3075 30.7675C36.8775 32.1925 38.255 33.125 39.79 33.125H49.71C51.245 33.125 52.6225 32.1925 53.1925 30.7675L54.75 26.875Z" fill="url(#paint4_linear_0_936)"/>
<defs>
<linearGradient id="paint0_linear_0_936" x1="0" y1="0" x2="65" y2="70" gradientUnits="userSpaceOnUse">
<stop stop-color="#A4CE3B"/>
<stop offset="1" stop-color="#52C5D7"/>
</linearGradient>
<linearGradient id="paint1_linear_0_936" x1="59.749" y1="77.4887" x2="59.7491" y2="24.5227" gradientUnits="userSpaceOnUse">
<stop stop-color="#9EC43C"/>
<stop offset="1" stop-color="#2E8B57"/>
</linearGradient>
<linearGradient id="paint2_linear_0_936" x1="69.5215" y1="70.0337" x2="69.5216" y2="31.4323" gradientUnits="userSpaceOnUse">
<stop stop-color="#9EC43C"/>
<stop offset="1" stop-color="#2E8B57"/>
</linearGradient>
<linearGradient id="paint3_linear_0_936" x1="49.9766" y1="70.0337" x2="49.9766" y2="31.4323" gradientUnits="userSpaceOnUse">
<stop stop-color="#9EC43C"/>
<stop offset="1" stop-color="#2E8B57"/>
</linearGradient>
<linearGradient id="paint4_linear_0_936" x1="39.8228" y1="123.458" x2="39.8229" y2="-18.0834" gradientUnits="userSpaceOnUse">
<stop stop-color="#9EC43C"/>
<stop offset="1" stop-color="#2E8B57"/>
</linearGradient>
</defs>
</svg>
