<svg width="92" height="92" viewBox="0 0 92 92" fill="none" xmlns="http://www.w3.org/2000/svg">
<g filter="url(#filter0_d_0_1323)">
<rect x="6" y="4" width="80" height="80" rx="12" fill="white"/>
</g>
<g clip-path="url(#clip0_0_1323)">
<path d="M46.002 71.8961C45.2317 71.8961 44.5128 71.6907 43.8452 71.3312L37.0155 67.2745C35.9884 66.7096 36.502 66.5042 36.8101 66.4015C38.1966 65.9393 38.4533 65.8366 39.8912 65.015C40.0452 64.9123 40.2506 64.9636 40.4047 65.0663L45.6425 68.1988C45.8479 68.3015 46.1047 68.3015 46.2587 68.1988L66.748 56.3366C66.9534 56.2339 67.0561 56.0285 67.0561 55.7717V32.0987C67.0561 31.8419 66.9534 31.6365 66.748 31.5338L46.2587 19.723C46.0533 19.6203 45.7966 19.6203 45.6425 19.723L25.1533 31.5338C24.9479 31.6365 24.8452 31.8933 24.8452 32.0987V55.7717C24.8452 55.9771 24.9479 56.2339 25.1533 56.3366L30.7506 59.5717C33.7803 61.1123 35.6803 59.315 35.6803 57.5177V34.1528C35.6803 33.8446 35.9371 33.5365 36.2966 33.5365H38.9155C39.2236 33.5365 39.5317 33.7933 39.5317 34.1528V57.5177C39.5317 61.5744 37.3236 63.9366 33.4722 63.9366C32.2911 63.9366 31.3668 63.9366 28.7479 62.6528L23.356 59.5717C22.0208 58.8015 21.1992 57.3636 21.1992 55.8231V32.15C21.1992 30.6095 22.0208 29.1717 23.356 28.4014L43.8452 16.5392C45.129 15.8203 46.875 15.8203 48.1587 16.5392L68.648 28.4014C69.9831 29.1717 70.8048 30.6095 70.8048 32.15V55.8231C70.8048 57.3636 69.9831 58.8015 68.648 59.5717L48.1587 71.4339C47.4912 71.742 46.7209 71.8961 46.002 71.8961ZM52.3182 55.6177C43.3317 55.6177 41.4831 51.5096 41.4831 48.0177C41.4831 47.7095 41.7398 47.4014 42.0993 47.4014H44.7696C45.0777 47.4014 45.3344 47.6068 45.3344 47.9149C45.7452 50.6366 46.9263 51.9717 52.3696 51.9717C56.6831 51.9717 58.5317 50.996 58.5317 48.6852C58.5317 47.3501 58.0182 46.3744 51.2912 45.7068C45.6939 45.142 42.202 43.9095 42.202 39.442C42.202 35.2825 45.6939 32.8176 51.5479 32.8176C58.1209 32.8176 61.3561 35.0771 61.7669 40.0068C61.7669 40.1609 61.7155 40.3149 61.6128 40.469C61.5101 40.5717 61.3561 40.6744 61.202 40.6744H58.5317C58.275 40.6744 58.0182 40.469 57.9669 40.2122C57.3507 37.3879 55.7588 36.4636 51.5479 36.4636C46.8236 36.4636 46.2587 38.1068 46.2587 39.3393C46.2587 40.8284 46.9263 41.2906 53.2939 42.1122C59.6101 42.9339 62.5885 44.1149 62.5885 48.5312C62.5372 53.0501 58.8399 55.6177 52.3182 55.6177Z" fill="#539E43"/>
</g>
<defs>
<filter id="filter0_d_0_1323" x="0" y="0" width="92" height="92" filterUnits="userSpaceOnUse" color-interpolation-filters="sRGB">
<feFlood flood-opacity="0" result="BackgroundImageFix"/>
<feColorMatrix in="SourceAlpha" type="matrix" values="0 0 0 0 0 0 0 0 0 0 0 0 0 0 0 0 0 0 127 0" result="hardAlpha"/>
<feOffset dy="2"/>
<feGaussianBlur stdDeviation="3"/>
<feComposite in2="hardAlpha" operator="out"/>
<feColorMatrix type="matrix" values="0 0 0 0 0 0 0 0 0 0 0 0 0 0 0 0 0 0 0.04 0"/>
<feBlend mode="normal" in2="BackgroundImageFix" result="effect1_dropShadow_0_1323"/>
<feBlend mode="normal" in="SourceGraphic" in2="effect1_dropShadow_0_1323" result="shape"/>
</filter>
<clipPath id="clip0_0_1323">
<rect width="49.6055" height="56" fill="white" transform="translate(21.1992 16)"/>
</clipPath>
</defs>
</svg>
