<svg width="92" height="92" viewBox="0 0 92 92" fill="none" xmlns="http://www.w3.org/2000/svg">
<g filter="url(#filter0_d_0_1264)">
<rect x="6" y="4" width="80" height="80" rx="12" fill="white"/>
</g>
<path d="M51.1903 43.9534C51.1903 41.1742 48.8667 38.9209 45.9999 38.9209C43.1336 38.9209 40.8096 41.1742 40.8096 43.9534C40.8096 46.7329 43.1336 48.986 45.9999 48.986C48.8667 48.986 51.1903 46.7329 51.1903 43.9534Z" fill="#53C1DE"/>
<path fill-rule="evenodd" clip-rule="evenodd" d="M62.857 34.6103C63.9531 30.2918 65.3308 22.2835 60.4739 19.5684C55.6396 16.8652 49.3488 22.0451 46.0269 25.1543C42.7148 22.0761 36.2472 16.9183 31.3944 19.642C26.5621 22.3543 28.0522 30.2298 29.1726 34.5754C24.6649 35.8168 16.9375 38.4905 16.9375 43.9533C16.9375 49.4006 24.6568 52.3095 29.1379 53.5497C28.0134 57.9194 26.5978 65.6824 31.4363 68.3887C36.3073 71.1118 42.7547 66.0768 46.1073 62.9336C49.4505 66.0611 55.6809 71.1291 60.5161 68.4152C65.3665 65.6928 64.1032 57.7919 62.9828 53.4211C67.3266 52.1782 75.0625 49.3326 75.0625 43.9533C75.0625 38.543 67.2937 35.8476 62.857 34.6103ZM62.3064 51.1048C61.5707 48.8468 60.5778 46.4457 59.3631 43.9653C60.5225 41.5434 61.4769 39.1733 62.1921 36.9299C65.4446 37.8442 72.5796 39.9338 72.5796 43.9533C72.5796 48.0106 65.7327 50.12 62.3064 51.1048ZM59.2719 66.3316C55.6642 68.3563 50.3053 63.5098 47.8364 61.2067C49.4743 59.4698 51.1111 57.4505 52.7086 55.2082C55.5187 54.9666 58.1733 54.5714 60.5809 54.0318C61.3694 57.1235 62.8954 64.2978 59.2719 66.3316ZM32.677 66.3028C29.069 64.2856 30.7181 57.3583 31.5454 54.1395C33.9262 54.6502 36.5617 55.0176 39.3784 55.239C40.9863 57.4331 42.6706 59.4498 44.3679 61.216C42.2709 63.1828 36.3018 68.3292 32.677 66.3028ZM19.4204 43.9533C19.4204 39.8809 26.5128 37.8064 29.8394 36.8944C30.5669 39.1882 31.521 41.5866 32.6724 44.012C31.506 46.4734 30.5383 48.9098 29.8041 51.2307C26.6321 50.3503 19.4204 48.0283 19.4204 43.9533ZM32.6384 21.7256C36.2612 19.6924 41.8822 24.644 44.2871 26.8727C42.5985 28.6309 40.9298 30.6324 39.3356 32.8138C36.602 33.0595 33.9851 33.454 31.5794 33.9825C30.6768 30.4776 29.0196 23.7566 32.6384 21.7256ZM54.4849 35.4306C56.3395 35.6575 58.1164 35.9594 59.7847 36.3287C59.2839 37.8852 58.6596 39.5129 57.9243 41.1815C56.8585 39.2208 55.7144 37.2993 54.4849 35.4306ZM46.0277 28.5932C47.173 29.7961 48.32 31.1395 49.4484 32.5968C47.1596 32.4918 44.8671 32.4914 42.5784 32.5953C43.7077 31.1514 44.8646 29.8101 46.0277 28.5932ZM34.097 41.1798C33.3739 39.517 32.7552 37.8821 32.25 36.3033C33.9084 35.9435 35.677 35.6494 37.5196 35.4262C36.2865 37.2908 35.1444 39.2115 34.097 41.1798ZM37.5725 52.6523C35.6691 52.4463 33.8737 52.1671 32.2158 51.8172C32.729 50.2107 33.3613 48.5405 34.0998 46.8419C35.1616 48.8308 36.3212 50.77 37.5725 52.6523ZM46.0965 59.4835C44.9197 58.2522 43.7457 56.8904 42.5993 55.4256C44.901 55.5132 47.2073 55.5134 49.5088 55.4138C48.3769 56.9053 47.234 58.2691 46.0965 59.4835ZM57.948 46.7555C58.7249 48.4725 59.3798 50.1335 59.9 51.713C58.2146 52.086 56.3951 52.3863 54.4779 52.6093C55.7166 50.7051 56.8789 48.7538 57.948 46.7555ZM51.3229 52.9011C47.8021 53.145 44.2593 53.1423 40.7374 52.921C38.7361 50.0867 36.9546 47.1058 35.4168 44.0112C36.9472 40.9231 38.7158 37.948 40.7075 35.1181C44.232 34.8598 47.7782 34.8591 51.3027 35.1197C53.2774 37.9494 55.0433 40.9167 56.6092 43.9769C55.0619 47.0636 53.284 50.0446 51.3229 52.9011ZM59.2337 21.654C62.8574 23.6805 61.2444 30.8778 60.4528 34.0075C58.0414 33.4679 55.4226 33.0665 52.6811 32.8169C51.0838 30.6119 49.429 28.6069 47.7678 26.8715C50.2034 24.5948 55.6451 19.6473 59.2337 21.654Z" fill="#53C1DE"/>
<defs>
<filter id="filter0_d_0_1264" x="0" y="0" width="92" height="92" filterUnits="userSpaceOnUse" color-interpolation-filters="sRGB">
<feFlood flood-opacity="0" result="BackgroundImageFix"/>
<feColorMatrix in="SourceAlpha" type="matrix" values="0 0 0 0 0 0 0 0 0 0 0 0 0 0 0 0 0 0 127 0" result="hardAlpha"/>
<feOffset dy="2"/>
<feGaussianBlur stdDeviation="3"/>
<feComposite in2="hardAlpha" operator="out"/>
<feColorMatrix type="matrix" values="0 0 0 0 0 0 0 0 0 0 0 0 0 0 0 0 0 0 0.04 0"/>
<feBlend mode="normal" in2="BackgroundImageFix" result="effect1_dropShadow_0_1264"/>
<feBlend mode="normal" in="SourceGraphic" in2="effect1_dropShadow_0_1264" result="shape"/>
</filter>
</defs>
</svg>
