<svg width="92" height="92" viewBox="0 0 92 92" fill="none" xmlns="http://www.w3.org/2000/svg">
<g filter="url(#filter0_d_0_1280)">
<rect x="6" y="4" width="80" height="80" rx="12" fill="white"/>
</g>
<path d="M57.5042 61.3841C51.3156 64.9438 42.8063 65.3096 34.2452 61.6561C27.3135 58.7197 21.562 53.5794 17.875 47.7063C19.6448 49.1746 21.7094 50.3497 23.9216 51.377C32.7627 55.5031 41.602 55.2206 47.8225 51.3875C38.9736 44.6326 31.443 35.8111 25.8391 28.6165C24.6587 27.4416 23.7738 25.9731 22.889 24.6516C29.673 30.819 40.4393 38.6013 44.2729 40.805C36.1628 32.2873 28.9358 21.7151 29.2302 22.0082C42.0612 34.9306 54.0076 42.2731 54.0076 42.2731C54.4028 42.4951 54.7079 42.6798 54.9531 42.845C55.2117 42.1901 55.4384 41.51 55.6294 40.805C57.694 33.3159 55.3351 24.7981 50.1726 17.75C62.1179 24.9454 69.1977 38.4547 66.2472 49.7623C66.1703 50.0673 66.0867 50.3684 65.9965 50.6641C71.8949 58.0068 70.3765 65.9158 69.6392 64.4474C66.4394 58.2127 60.5159 60.1192 57.5042 61.3841Z" fill="url(#paint0_linear_0_1280)"/>
<defs>
<filter id="filter0_d_0_1280" x="0" y="0" width="92" height="92" filterUnits="userSpaceOnUse" color-interpolation-filters="sRGB">
<feFlood flood-opacity="0" result="BackgroundImageFix"/>
<feColorMatrix in="SourceAlpha" type="matrix" values="0 0 0 0 0 0 0 0 0 0 0 0 0 0 0 0 0 0 127 0" result="hardAlpha"/>
<feOffset dy="2"/>
<feGaussianBlur stdDeviation="3"/>
<feComposite in2="hardAlpha" operator="out"/>
<feColorMatrix type="matrix" values="0 0 0 0 0 0 0 0 0 0 0 0 0 0 0 0 0 0 0.04 0"/>
<feBlend mode="normal" in2="BackgroundImageFix" result="effect1_dropShadow_0_1280"/>
<feBlend mode="normal" in="SourceGraphic" in2="effect1_dropShadow_0_1280" result="shape"/>
</filter>
<linearGradient id="paint0_linear_0_1280" x1="44.1443" y1="17.75" x2="44.1443" y2="64.6274" gradientUnits="userSpaceOnUse">
<stop stop-color="#F88A36"/>
<stop offset="1" stop-color="#FD2020"/>
</linearGradient>
</defs>
</svg>
