<svg width="80" height="80" viewBox="0 0 80 80" fill="none" xmlns="http://www.w3.org/2000/svg">
<circle cx="35" cy="35" r="35" fill="url(#paint0_linear_0_1082)" fill-opacity="0.18"/>
<path d="M66.4923 41.5167C68.1035 44.4281 69.0225 47.7737 69.0225 51.3301C69.0225 62.5419 59.9011 71.6633 48.6893 71.6633C37.4775 71.6633 28.3562 62.5419 28.3562 51.3302C28.3562 40.1186 37.4775 30.9971 48.6893 30.9971C52.1564 30.9971 55.4231 31.8703 58.2824 33.4068L62.4695 29.2197C58.3757 26.6574 53.6381 25.2852 48.6892 25.2852C41.7324 25.2852 35.1918 27.9943 30.2725 32.9136C25.3532 37.8329 22.644 44.3734 22.644 51.3303C22.644 58.2871 25.3532 64.8277 30.2725 69.7469C35.1919 74.6663 41.7324 77.3755 48.6892 77.3755C55.646 77.3755 62.1866 74.6663 67.1058 69.7469C72.0252 64.8276 74.7344 58.2871 74.7344 51.3303C74.7344 46.297 73.3154 41.4821 70.6681 37.3409L66.4923 41.5167Z" fill="url(#paint1_linear_0_1082)"/>
<path d="M50.6824 46.5171C48.8075 45.7488 46.5642 46.1179 45.0435 47.6387C43.0148 49.6674 43.0148 52.94 45.0435 54.953C47.0715 56.981 50.344 56.981 52.3569 54.953C53.8784 53.4312 54.2467 51.1882 53.4785 49.3142L68.3364 34.4562L70.8108 34.7787L77.3559 28.2329L72.4088 27.5728L71.7478 22.6249L65.2019 29.1857L65.5252 31.6593L50.6824 46.5171Z" fill="url(#paint2_linear_0_1082)"/>
<path d="M58.3776 49.6311C58.4741 50.1832 58.5249 50.7508 58.5249 51.3302C58.5249 56.7538 54.1126 61.1661 48.689 61.1661C43.2655 61.1661 38.8531 56.7539 38.8531 51.3302C38.8531 45.9068 43.2654 41.4944 48.689 41.4944C49.1659 41.4944 49.6348 41.5292 50.0938 41.5951L54.698 36.9909C52.8484 36.2129 50.8181 35.7823 48.689 35.7823C40.1159 35.7823 33.1411 42.7571 33.1411 51.3302C33.1411 59.9033 40.1159 66.8782 48.689 66.8782C57.262 66.8782 64.2369 59.9033 64.2369 51.3302C64.2369 49.1094 63.7678 46.9964 62.9253 45.0834L58.3776 49.6311Z" fill="url(#paint3_linear_0_1082)"/>
<defs>
<linearGradient id="paint0_linear_0_1082" x1="0" y1="0" x2="65" y2="70" gradientUnits="userSpaceOnUse">
<stop stop-color="#A4CE3B"/>
<stop offset="1" stop-color="#52C5D7"/>
</linearGradient>
<linearGradient id="paint1_linear_0_1082" x1="41.609" y1="122.52" x2="41.609" y2="-14.6508" gradientUnits="userSpaceOnUse">
<stop stop-color="#9EC43C"/>
<stop offset="1" stop-color="#2E8B57"/>
</linearGradient>
<linearGradient id="paint2_linear_0_1082" x1="55.8401" y1="85.8099" x2="55.8402" y2="-3.32612" gradientUnits="userSpaceOnUse">
<stop stop-color="#9EC43C"/>
<stop offset="1" stop-color="#2E8B57"/>
</linearGradient>
<linearGradient id="paint3_linear_0_1082" x1="44.4624" y1="93.8279" x2="44.4625" y2="11.9422" gradientUnits="userSpaceOnUse">
<stop stop-color="#9EC43C"/>
<stop offset="1" stop-color="#2E8B57"/>
</linearGradient>
</defs>
</svg>
