<svg width="112" height="112" viewBox="0 0 112 112" fill="none" xmlns="http://www.w3.org/2000/svg">
<g filter="url(#filter0_d_0_1227)">
<rect x="6" y="4" width="100" height="100" rx="16" fill="white"/>
</g>
<path d="M32.375 65.25V33.75C32.375 33.1533 32.6121 32.581 33.034 32.159C33.456 31.7371 34.0283 31.5 34.625 31.5H77.375C77.9717 31.5 78.544 31.7371 78.966 32.159C79.3879 32.581 79.625 33.1533 79.625 33.75V65.25" fill="#686868"/>
<path d="M36.875 36H75.125V65.25H36.875V36Z" fill="#F7FAFD"/>
<path d="M70.625 65.25V60.75H68.1613C67.8487 59.0418 67.1777 57.4191 66.1925 55.989L67.9329 54.2498L64.7502 51.0671L63.011 52.8075C61.5809 51.8223 59.9582 51.1513 58.25 50.8388V48.375H53.75V50.8388C52.0418 51.1513 50.4191 51.8223 48.989 52.8075L47.2498 51.0671L44.0671 54.2498L45.8075 55.989C44.8223 57.4191 44.1513 59.0418 43.8388 60.75H41.375V65.25H48.4513C48.102 64.0749 48.032 62.8344 48.2467 61.6275C48.4615 60.4205 48.955 59.2803 49.6881 58.2977C50.4211 57.3151 51.3735 56.5173 52.4693 55.9676C53.5651 55.418 54.7741 55.1318 56 55.1318C57.2259 55.1318 58.4349 55.418 59.5307 55.9676C60.6265 56.5173 61.5789 57.3151 62.3119 58.2977C63.045 59.2803 63.5385 60.4205 63.7533 61.6275C63.968 62.8344 63.898 64.0749 63.5487 65.25H70.625Z" fill="#F9D266"/>
<path d="M89.75 83.25L79.625 65.25H32.375L22.25 83.25H89.75Z" fill="#939393"/>
<path d="M22.25 83.25L26.75 87.75H85.25L89.75 83.25" fill="#686868"/>
<path d="M31.25 78.75L35.75 69.75H76.25L80.75 78.75H31.25Z" fill="#CCCCCC"/>
<path d="M40.248 44.999H46.9969V47.2479H40.248V44.999Z" fill="#D23F34"/>
<path d="M65 44.9988H71.7489V47.2477H65V44.9988Z" fill="#D23F34"/>
<path d="M56 42.75C40.7281 42.75 24.5 39.2006 24.5 32.625C24.5 26.0494 40.7281 22.5 56 22.5C71.2719 22.5 87.5 26.0471 87.5 32.625C87.5 39.2029 71.2685 42.75 56 42.75ZM56 24.75C38.7616 24.75 26.75 28.899 26.75 32.625C26.75 36.351 38.7628 40.5 56 40.5C73.2373 40.5 85.25 36.351 85.25 32.625C85.25 28.899 73.235 24.75 56 24.75Z" fill="#C0DAFC"/>
<path d="M56 27C57.864 27 59.375 25.489 59.375 23.625C59.375 21.761 57.864 20.25 56 20.25C54.136 20.25 52.625 21.761 52.625 23.625C52.625 25.489 54.136 27 56 27Z" fill="#3B5892"/>
<path d="M56 45C57.864 45 59.375 43.489 59.375 41.625C59.375 39.761 57.864 38.25 56 38.25C54.136 38.25 52.625 39.761 52.625 41.625C52.625 43.489 54.136 45 56 45Z" fill="#3B5892"/>
<path d="M86.375 36C88.239 36 89.75 34.489 89.75 32.625C89.75 30.761 88.239 29.25 86.375 29.25C84.511 29.25 83 30.761 83 32.625C83 34.489 84.511 36 86.375 36Z" fill="#6BC13B"/>
<path d="M25.625 36C27.489 36 29 34.489 29 32.625C29 30.761 27.489 29.25 25.625 29.25C23.761 29.25 22.25 30.761 22.25 32.625C22.25 34.489 23.761 36 25.625 36Z" fill="#6BC13B"/>
<path d="M58.9153 21.9509C58.4947 21.2107 57.809 20.6575 56.9966 20.4029C56.1842 20.1484 55.3054 20.2113 54.5376 20.5791C53.7697 20.9469 53.1699 21.5922 52.8591 22.3848C52.5483 23.1774 52.5496 24.0584 52.8628 24.8501C53.1374 24.8899 53.4144 24.9109 53.6919 24.9131C54.7443 24.9128 55.7786 24.6397 56.6941 24.1206C57.6095 23.6015 58.3748 22.8539 58.9153 21.9509Z" fill="#4C6CB5"/>
<path d="M58.9153 39.9509C58.4947 39.2107 57.809 38.6575 56.9966 38.4029C56.1842 38.1484 55.3054 38.2113 54.5376 38.5791C53.7697 38.9469 53.1699 39.5922 52.8591 40.3848C52.5483 41.1774 52.5496 42.0584 52.8628 42.8501C54.0455 43.0228 55.2529 42.8394 56.3309 42.323C57.4089 41.8066 58.3086 40.9808 58.9153 39.9509Z" fill="#4C6CB5"/>
<path d="M28.5403 30.951C28.1197 30.2107 27.434 29.6575 26.6216 29.4029C25.8092 29.1484 24.9304 29.2113 24.1626 29.5791C23.3947 29.9469 22.7949 30.5922 22.4841 31.3848C22.1733 32.1774 22.1746 33.0584 22.4878 33.8501C22.7624 33.8899 23.0394 33.9109 23.3169 33.9131C24.3693 33.9128 25.4036 33.6397 26.3191 33.1206C27.2345 32.6015 27.9998 31.8539 28.5403 30.951Z" fill="#7BDF45"/>
<path d="M89.2903 30.9509C88.8697 30.2107 88.184 29.6575 87.3716 29.4029C86.5592 29.1484 85.6804 29.2113 84.9126 29.5791C84.1447 29.9469 83.5449 30.5922 83.2341 31.3848C82.9233 32.1774 82.9246 33.0584 83.2378 33.8501C84.4205 34.0228 85.6279 33.8394 86.7059 33.323C87.7839 32.8066 88.6836 31.9808 89.2903 30.9509Z" fill="#7BDF45"/>
<defs>
<filter id="filter0_d_0_1227" x="0" y="0" width="112" height="112" filterUnits="userSpaceOnUse" color-interpolation-filters="sRGB">
<feFlood flood-opacity="0" result="BackgroundImageFix"/>
<feColorMatrix in="SourceAlpha" type="matrix" values="0 0 0 0 0 0 0 0 0 0 0 0 0 0 0 0 0 0 127 0" result="hardAlpha"/>
<feOffset dy="2"/>
<feGaussianBlur stdDeviation="3"/>
<feComposite in2="hardAlpha" operator="out"/>
<feColorMatrix type="matrix" values="0 0 0 0 0 0 0 0 0 0 0 0 0 0 0 0 0 0 0.06 0"/>
<feBlend mode="normal" in2="BackgroundImageFix" result="effect1_dropShadow_0_1227"/>
<feBlend mode="normal" in="SourceGraphic" in2="effect1_dropShadow_0_1227" result="shape"/>
</filter>
</defs>
</svg>
