<svg width="80" height="80" viewBox="0 0 80 80" fill="none" xmlns="http://www.w3.org/2000/svg">
<circle cx="35" cy="35" r="35" fill="url(#paint0_linear_0_991)" fill-opacity="0.18"/>
<path d="M72.4719 26.5999H27.5281C26.5267 26.6017 25.5667 27.0003 24.8586 27.7084C24.1505 28.4166 23.7518 29.3765 23.75 30.378V55.0717H76.25V30.378C76.2482 29.3765 75.8495 28.4166 75.1414 27.7084C74.4333 27.0003 73.4733 26.6017 72.4719 26.5999ZM38.6094 43.8217C38.5212 48.761 30.8795 48.7802 30.7906 43.831V37.8499C30.7955 37.6045 30.8965 37.3708 31.0718 37.199C31.2471 37.0272 31.4827 36.9309 31.7282 36.931C31.9736 36.931 32.2093 37.0272 32.3845 37.199C32.5598 37.3708 32.6607 37.6045 32.6656 37.8499V43.8311C32.658 46.2878 36.7442 46.2802 36.7344 43.8217V37.8218C36.7344 37.5731 36.8331 37.3347 37.009 37.1588C37.1848 36.983 37.4232 36.8843 37.6719 36.8843C37.9205 36.8843 38.159 36.983 38.3348 37.1588C38.5106 37.3347 38.6094 37.5731 38.6094 37.8218V43.8217ZM47.825 38.3655L44.9188 42.378L47.4219 46.0718C47.5548 46.2782 47.6016 46.5285 47.5522 46.769C47.5028 47.0095 47.3612 47.2211 47.1576 47.3585C46.9541 47.4958 46.7049 47.5479 46.4633 47.5037C46.2218 47.4594 46.0073 47.3223 45.8656 47.1217L43.7469 43.9906L41.4594 47.1499C41.312 47.3505 41.0914 47.4847 40.8456 47.5233C40.5998 47.5619 40.3486 47.5019 40.1469 47.3562C40.0466 47.284 39.9616 47.1927 39.8968 47.0874C39.8321 46.9821 39.7888 46.8651 39.7696 46.743C39.7505 46.6209 39.7557 46.4962 39.785 46.3762C39.8144 46.2562 39.8673 46.1431 39.9406 46.0437L42.6312 42.3406L39.9219 38.3468C39.7831 38.1404 39.7316 37.8874 39.7787 37.6432C39.8258 37.399 39.9676 37.1833 40.1733 37.0433C40.3789 36.9034 40.6316 36.8505 40.8761 36.8962C41.1206 36.9419 41.337 37.0826 41.4781 37.2874L43.8031 40.7187L46.3062 37.2687C46.454 37.0734 46.6723 36.9437 46.9145 36.9074C47.1567 36.8711 47.4035 36.931 47.602 37.0744C47.8005 37.2178 47.935 37.4332 47.9767 37.6745C48.0184 37.9158 47.9639 38.1639 47.825 38.3655ZM56.675 35.4874L49.8125 49.8593C49.7028 50.0796 49.5109 50.2482 49.2783 50.3285C49.0456 50.4089 48.7906 50.3948 48.5683 50.2891C48.3459 50.1835 48.1739 49.9948 48.0893 49.7636C48.0046 49.5324 48.0141 49.2773 48.1156 49.053L54.9781 34.6811C55.089 34.4627 55.2808 34.2962 55.5126 34.2171C55.7445 34.138 55.998 34.1526 56.2193 34.2577C56.4406 34.3628 56.612 34.5502 56.6971 34.7799C56.7823 35.0096 56.7743 35.2635 56.675 35.4874ZM65.6188 43.8218C65.5305 48.7611 57.8889 48.7802 57.8 43.8311V37.8499C57.8049 37.6045 57.9059 37.3708 58.0811 37.199C58.2564 37.0272 58.4921 36.9309 58.7375 36.931C58.983 36.931 59.2186 37.0272 59.3939 37.199C59.5692 37.3708 59.6701 37.6045 59.675 37.8499V43.8311C59.6744 46.288 63.7528 46.2793 63.7437 43.8217V37.8218C63.7437 37.5731 63.8425 37.3347 64.0183 37.1588C64.1941 36.983 64.4326 36.8843 64.6812 36.8843C64.9298 36.8843 65.1683 36.983 65.3441 37.1588C65.5199 37.3347 65.6187 37.5731 65.6187 37.8218L65.6188 43.8218ZM69.2094 46.5968C69.2057 46.843 69.1053 47.0779 68.9299 47.2507C68.7545 47.4236 68.5181 47.5205 68.2719 47.5204C68.0256 47.5204 67.7892 47.4236 67.6138 47.2507C67.4384 47.0779 67.338 46.843 67.3344 46.5967V37.8218C67.3389 37.5761 67.4397 37.3421 67.615 37.1699C67.7903 36.9978 68.0262 36.9014 68.2719 36.9014C68.5176 36.9014 68.7535 36.9979 68.9288 37.17C69.1041 37.3421 69.2049 37.5762 69.2094 37.8218V46.5968Z" fill="url(#paint1_linear_0_991)"/>
<path d="M25.625 56.9467H23.75V59.4967C23.7518 60.4981 24.1505 61.458 24.8586 62.1662C25.5667 62.8743 26.5267 63.273 27.5281 63.2748H45.8938C45.9969 65.506 42.2656 69.4248 39.3031 71.7217C39.1474 71.8406 39.0331 72.0054 38.9761 72.1929C38.9191 72.3803 38.9225 72.5809 38.9857 72.7663C39.0489 72.9518 39.1687 73.1127 39.3283 73.2263C39.4879 73.34 39.6791 73.4007 39.875 73.3998H60.125C60.3219 73.3947 60.5123 73.3285 60.6697 73.2103C60.8272 73.092 60.944 72.9277 61.0038 72.74C61.0635 72.5524 61.0634 72.3508 61.0034 72.1633C60.9433 71.9757 60.8263 71.8115 60.6687 71.6935C60.6031 71.6467 54.8094 67.4748 54.3406 63.2748H72.4719C73.4733 63.273 74.4333 62.8743 75.1414 62.1662C75.8495 61.458 76.2482 60.4981 76.25 59.4967V56.9467H25.625ZM47.6375 57.9685H52.0813C52.3275 57.9722 52.5624 58.0726 52.7352 58.248C52.9081 58.4234 53.0049 58.6598 53.0049 58.906C53.0049 59.1523 52.9081 59.3887 52.7352 59.5641C52.5624 59.7395 52.3275 59.8399 52.0813 59.8435H47.6375C47.3914 59.8397 47.1566 59.7393 46.9839 59.5639C46.8112 59.3885 46.7144 59.1522 46.7144 58.906C46.7144 58.6599 46.8112 58.4236 46.9839 58.2482C47.1566 58.0728 47.3914 57.9723 47.6375 57.9685Z" fill="url(#paint2_linear_0_991)"/>
<defs>
<linearGradient id="paint0_linear_0_991" x1="0" y1="0" x2="65" y2="70" gradientUnits="userSpaceOnUse">
<stop stop-color="#A4CE3B"/>
<stop offset="1" stop-color="#52C5D7"/>
</linearGradient>
<linearGradient id="paint1_linear_0_991" x1="42.8641" y1="79.7473" x2="42.8641" y2="4.77141" gradientUnits="userSpaceOnUse">
<stop stop-color="#9EC43C"/>
<stop offset="1" stop-color="#2E8B57"/>
</linearGradient>
<linearGradient id="paint2_linear_0_991" x1="42.8641" y1="87.6592" x2="42.8641" y2="44.3326" gradientUnits="userSpaceOnUse">
<stop stop-color="#9EC43C"/>
<stop offset="1" stop-color="#2E8B57"/>
</linearGradient>
</defs>
</svg>
