<svg width="80" height="80" viewBox="0 0 80 80" fill="none" xmlns="http://www.w3.org/2000/svg">
<circle cx="35" cy="35" r="35" fill="url(#paint0_linear_0_978)" fill-opacity="0.18"/>
<path d="M32.0749 34.9087C32.9075 34.9087 33.5824 34.2337 33.5824 33.4012C33.5824 32.5686 32.9075 31.8937 32.0749 31.8937C31.2423 31.8937 30.5674 32.5686 30.5674 33.4012C30.5674 34.2337 31.2423 34.9087 32.0749 34.9087Z" fill="url(#paint1_linear_0_978)"/>
<path d="M37.3849 34.9087C38.2175 34.9087 38.8924 34.2337 38.8924 33.4012C38.8924 32.5686 38.2175 31.8937 37.3849 31.8937C36.5524 31.8937 35.8774 32.5686 35.8774 33.4012C35.8774 34.2337 36.5524 34.9087 37.3849 34.9087Z" fill="url(#paint2_linear_0_978)"/>
<path d="M42.695 34.9087C43.5276 34.9087 44.2025 34.2337 44.2025 33.4012C44.2025 32.5686 43.5276 31.8937 42.695 31.8937C41.8624 31.8937 41.1875 32.5686 41.1875 33.4012C41.1875 34.2337 41.8624 34.9087 42.695 34.9087Z" fill="url(#paint3_linear_0_978)"/>
<path d="M57.6332 58.8581L62.5513 75.0244C63.0276 76.59 65.2326 76.6238 65.7557 75.0713L68.0582 68.2388C68.227 67.74 68.617 67.35 69.1157 67.1813L75.9482 64.8788C77.4988 64.3556 77.467 62.1506 75.9013 61.6744L59.7351 56.7563C58.447 56.3663 57.2432 57.57 57.6332 58.8581Z" fill="url(#paint4_linear_0_978)"/>
<path d="M54.9444 59.6756C54.5244 58.2993 54.7756 56.8462 55.6306 55.6931C56.4781 54.5512 57.8244 53.8687 59.2363 53.8687C59.6806 53.8687 60.1231 53.9343 60.5544 54.0656L75.0894 58.485V32.7581C75.0894 28.9143 71.9581 25.7831 68.1144 25.7831H29.8812C26.0375 25.7831 22.9062 28.9143 22.9062 32.7581V63.9768C22.9062 67.8393 26.0375 70.9706 29.9 70.9706H58.3775L54.9444 59.6756ZM26.2812 37.6706V32.76C26.2812 30.7743 27.8956 29.16 29.8812 29.16H68.1125C70.0981 29.16 71.7125 30.7743 71.7125 32.76V37.6706H26.2812Z" fill="url(#paint5_linear_0_978)"/>
<defs>
<linearGradient id="paint0_linear_0_978" x1="0" y1="0" x2="65" y2="70" gradientUnits="userSpaceOnUse">
<stop stop-color="#A4CE3B"/>
<stop offset="1" stop-color="#52C5D7"/>
</linearGradient>
<linearGradient id="paint1_linear_0_978" x1="31.6651" y1="37.5217" x2="31.6651" y2="29.5822" gradientUnits="userSpaceOnUse">
<stop stop-color="#9EC43C"/>
<stop offset="1" stop-color="#2E8B57"/>
</linearGradient>
<linearGradient id="paint2_linear_0_978" x1="36.9751" y1="37.5217" x2="36.9751" y2="29.5822" gradientUnits="userSpaceOnUse">
<stop stop-color="#9EC43C"/>
<stop offset="1" stop-color="#2E8B57"/>
</linearGradient>
<linearGradient id="paint3_linear_0_978" x1="42.2852" y1="37.5217" x2="42.2852" y2="29.5822" gradientUnits="userSpaceOnUse">
<stop stop-color="#9EC43C"/>
<stop offset="1" stop-color="#2E8B57"/>
</linearGradient>
<linearGradient id="paint4_linear_0_978" x1="64.6708" y1="93.1482" x2="64.6709" y2="41.7043" gradientUnits="userSpaceOnUse">
<stop stop-color="#9EC43C"/>
<stop offset="1" stop-color="#2E8B57"/>
</linearGradient>
<linearGradient id="paint5_linear_0_978" x1="41.905" y1="110.133" x2="41.905" y2="-8.86068" gradientUnits="userSpaceOnUse">
<stop stop-color="#9EC43C"/>
<stop offset="1" stop-color="#2E8B57"/>
</linearGradient>
</defs>
</svg>
