<svg width="80" height="80" viewBox="0 0 80 80" fill="none" xmlns="http://www.w3.org/2000/svg">
<circle cx="35" cy="35" r="35" fill="url(#paint0_linear_0_1030)" fill-opacity="0.18"/>
<path d="M55.3099 66.38H54.4988L52.4779 62.024H40.6219L38.601 66.38H34.0099C33.5178 66.38 33.1099 66.788 33.1099 67.28C33.1099 67.784 33.5178 68.18 34.0099 68.18H37.7659H55.3099H55.3339L55.3099 68.1282V66.38Z" fill="url(#paint1_linear_0_1030)"/>
<path d="M55.3099 53.54H21.6499V56.732C21.6499 58.664 23.2099 60.224 25.1419 60.224H55.3099V53.54ZM48.4819 57.332H44.6178C44.1139 57.332 43.7178 56.936 43.7178 56.432C43.7178 55.94 44.1139 55.532 44.6178 55.532H48.4819C48.9739 55.532 49.3819 55.94 49.3819 56.432C49.3819 56.936 48.9739 57.332 48.4819 57.332Z" fill="url(#paint2_linear_0_1030)"/>
<path d="M74.8099 44.24H60.6499C58.7059 44.24 57.1099 45.836 57.1099 47.792V73.208C57.1099 75.152 58.7059 76.748 60.6499 76.748H74.8099C76.7539 76.748 78.3499 75.152 78.3499 73.208V47.792C78.3499 45.836 76.7539 44.24 74.8099 44.24ZM66.4266 47.4142H69.0341C69.5309 47.4142 69.9341 47.8173 69.9341 48.3142C69.9341 48.811 69.5309 49.2142 69.0341 49.2142H66.4266C65.9298 49.2142 65.5266 48.811 65.5266 48.3142C65.5266 47.8173 65.9298 47.4142 66.4266 47.4142ZM68.5677 73.5745H66.893C66.3962 73.5745 65.993 73.1714 65.993 72.6745C65.993 72.1776 66.3962 71.7745 66.893 71.7745H68.5677C69.0645 71.7745 69.4677 72.1776 69.4677 72.6745C69.4677 73.1714 69.0645 73.5745 68.5677 73.5745ZM75.4616 69.8537H59.9981V51.1343H75.4616V69.8537Z" fill="url(#paint3_linear_0_1030)"/>
<path d="M71.4499 42.44V26.7441C71.4499 24.824 69.8898 23.252 67.9579 23.252H25.1419C23.2099 23.252 21.6499 24.824 21.6499 26.7441V51.74H55.3099V47.792C55.3099 44.84 57.7099 42.44 60.6499 42.44H71.4499ZM25.9699 32.276C25.6099 31.9281 25.6099 31.352 25.9699 31.004L29.1019 27.86C29.4619 27.512 30.0259 27.512 30.3739 27.86C30.7339 28.208 30.7339 28.784 30.3739 29.132L27.2419 32.276C26.8711 32.6469 26.2818 32.6103 25.9699 32.276ZM35.0419 30.6441L28.7419 36.9441C28.4009 37.2849 27.8586 37.3067 27.4699 36.9441C27.1219 36.584 27.1219 36.02 27.4699 35.6721L33.7699 29.3721C34.1178 29.024 34.6939 29.024 35.0419 29.3721C35.3898 29.72 35.3898 30.296 35.0419 30.6441Z" fill="url(#paint4_linear_0_1030)"/>
<defs>
<linearGradient id="paint0_linear_0_1030" x1="0" y1="0" x2="65" y2="70" gradientUnits="userSpaceOnUse">
<stop stop-color="#A4CE3B"/>
<stop offset="1" stop-color="#52C5D7"/>
</linearGradient>
<linearGradient id="paint1_linear_0_1030" x1="41.2011" y1="73.5152" x2="41.2011" y2="57.3044" gradientUnits="userSpaceOnUse">
<stop stop-color="#9EC43C"/>
<stop offset="1" stop-color="#2E8B57"/>
</linearGradient>
<linearGradient id="paint2_linear_0_1030" x1="33.9047" y1="66.0168" x2="33.9048" y2="48.4156" gradientUnits="userSpaceOnUse">
<stop stop-color="#9EC43C"/>
<stop offset="1" stop-color="#2E8B57"/>
</linearGradient>
<linearGradient id="paint3_linear_0_1030" x1="64.8429" y1="104.922" x2="64.843" y2="19.3172" gradientUnits="userSpaceOnUse">
<stop stop-color="#9EC43C"/>
<stop offset="1" stop-color="#2E8B57"/>
</linearGradient>
<linearGradient id="paint4_linear_0_1030" x1="39.781" y1="76.4296" x2="39.781" y2="1.41122" gradientUnits="userSpaceOnUse">
<stop stop-color="#9EC43C"/>
<stop offset="1" stop-color="#2E8B57"/>
</linearGradient>
</defs>
</svg>
